%TF.GenerationSoftware,KiCad,Pcbnew,10.0.0*%
%TF.CreationDate,2026-08-09T21:51:19-07:00*%
%TF.ProjectId,4ch_iepe_signalcond,3463685f-6965-4706-955f-7369676e616c,rev?*%
%TF.SameCoordinates,Original*%
%TF.FileFunction,Soldermask,Bot*%
%TF.FilePolarity,Negative*%
%FSLAX46Y46*%
G04 Gerber Fmt 4.6, Leading zero omitted, Abs format (unit mm)*
G04 Created by KiCad (PCBNEW 10.0.0) date 2026-08-09 21:51:19*
%MOMM*%
%LPD*%
G01*
G04 APERTURE LIST*
%ADD10C,2.000000*%
%ADD11C,1.600000*%
%ADD12C,3.200000*%
%ADD13R,1.200000X1.200000*%
%ADD14C,1.200000*%
%ADD15R,1.350000X1.350000*%
%ADD16C,1.350000*%
%ADD17R,1.150000X1.150000*%
%ADD18C,1.150000*%
G04 APERTURE END LIST*
D10*
%TO.C,TP12*%
X101100000Y-67000000D03*
%TD*%
D11*
%TO.C,R3*%
X86100000Y-81211412D03*
X96260000Y-81211412D03*
%TD*%
D12*
%TO.C,H1*%
X108000000Y-105000000D03*
%TD*%
D13*
%TO.C,D8*%
X69500000Y-84000000D03*
D14*
X80600000Y-84000000D03*
%TD*%
D12*
%TO.C,H2*%
X63000000Y-45000000D03*
%TD*%
D15*
%TO.C,J7*%
X101100000Y-86500000D03*
D16*
X101100000Y-88500000D03*
%TD*%
D10*
%TO.C,TP99*%
X94000000Y-46000000D03*
%TD*%
D15*
%TO.C,J9*%
X101000000Y-100000000D03*
D16*
X101000000Y-102000000D03*
%TD*%
D13*
%TO.C,D1*%
X69400000Y-59500000D03*
D14*
X80500000Y-59500000D03*
%TD*%
D15*
%TO.C,J4*%
X65600000Y-66500000D03*
D16*
X65600000Y-68500000D03*
%TD*%
D13*
%TO.C,D7*%
X69500000Y-81000000D03*
D14*
X80600000Y-81000000D03*
%TD*%
D15*
%TO.C,J1*%
X65500000Y-53500000D03*
D16*
X65500000Y-55500000D03*
%TD*%
D11*
%TO.C,R2*%
X86100000Y-67500000D03*
X96260000Y-67500000D03*
%TD*%
D13*
%TO.C,D4*%
X69500000Y-67000000D03*
D14*
X80600000Y-67000000D03*
%TD*%
D13*
%TO.C,D3*%
X69400000Y-56500000D03*
D14*
X80500000Y-56500000D03*
%TD*%
D17*
%TO.C,C3*%
X91600000Y-87000000D03*
D18*
X93600000Y-87000000D03*
%TD*%
D10*
%TO.C,TP10*%
X101000000Y-53500000D03*
%TD*%
D13*
%TO.C,D10*%
X69500000Y-95000000D03*
D14*
X80600000Y-95000000D03*
%TD*%
D15*
%TO.C,J8*%
X65600000Y-95000000D03*
D16*
X65600000Y-97000000D03*
%TD*%
D13*
%TO.C,D12*%
X69500000Y-101000000D03*
D14*
X80600000Y-101000000D03*
%TD*%
D13*
%TO.C,D11*%
X69500000Y-98000000D03*
D14*
X80600000Y-98000000D03*
%TD*%
D15*
%TO.C,J5*%
X101000000Y-72000000D03*
D16*
X101000000Y-74000000D03*
%TD*%
D10*
%TO.C,TP4*%
X84600000Y-101000000D03*
%TD*%
%TO.C,TP13*%
X101100000Y-81000000D03*
%TD*%
D15*
%TO.C,J3*%
X101500000Y-46500000D03*
D16*
X99500000Y-46500000D03*
%TD*%
D13*
%TO.C,D2*%
X69400000Y-53500000D03*
D14*
X80500000Y-53500000D03*
%TD*%
D13*
%TO.C,D9*%
X69500000Y-87000000D03*
D14*
X80600000Y-87000000D03*
%TD*%
D12*
%TO.C,H4*%
X108000000Y-45000000D03*
%TD*%
D10*
%TO.C,TP1*%
X84500000Y-58500000D03*
%TD*%
D15*
%TO.C,J6*%
X65600000Y-81000000D03*
D16*
X65600000Y-83000000D03*
%TD*%
D10*
%TO.C,TP14*%
X101000000Y-95500000D03*
%TD*%
%TO.C,TP3*%
X84600000Y-87000000D03*
%TD*%
D12*
%TO.C,H3*%
X63000000Y-105000000D03*
%TD*%
D11*
%TO.C,R1*%
X86000000Y-54000000D03*
X96160000Y-54000000D03*
%TD*%
D10*
%TO.C,TP2*%
X84600000Y-72500000D03*
%TD*%
D17*
%TO.C,C1*%
X91000000Y-59500000D03*
D18*
X93000000Y-59500000D03*
%TD*%
D17*
%TO.C,C4*%
X91100000Y-101000000D03*
D18*
X93100000Y-101000000D03*
%TD*%
D13*
%TO.C,D5*%
X69500000Y-70000000D03*
D14*
X80600000Y-70000000D03*
%TD*%
D17*
%TO.C,C2*%
X91100000Y-72500000D03*
D18*
X93100000Y-72500000D03*
%TD*%
D13*
%TO.C,D6*%
X69500000Y-73000000D03*
D14*
X80600000Y-73000000D03*
%TD*%
D11*
%TO.C,R4*%
X86000000Y-96000000D03*
X96160000Y-96000000D03*
%TD*%
D10*
%TO.C,TP98*%
X89500000Y-46000000D03*
%TD*%
D15*
%TO.C,J2*%
X101000000Y-58500000D03*
D16*
X101000000Y-60500000D03*
%TD*%
M02*
