M48
; DRILL file KiCad 10.0.0 date 2026-08-09T21:55:43
; FORMAT={-:-/ absolute / metric / decimal}
; #@! TF.CreationDate,2026-08-09T21:55:43-07:00
; #@! TF.GenerationSoftware,Kicad,Pcbnew,10.0.0
; #@! TF.FileFunction,Plated,1,2,PTH
FMAT,2
METRIC
; #@! TA.AperFunction,Plated,PTH,ComponentDrill
T1C0.750
; #@! TA.AperFunction,Plated,PTH,ComponentDrill
T2C0.800
; #@! TA.AperFunction,Plated,PTH,ComponentDrill
T3C1.000
%
G90
G05
T1
X91.0Y-59.5
X91.1Y-72.5
X91.1Y-101.0
X91.6Y-87.0
X93.0Y-59.5
X93.1Y-72.5
X93.1Y-101.0
X93.6Y-87.0
T2
X65.5Y-53.5
X65.5Y-55.5
X65.6Y-66.5
X65.6Y-68.5
X65.6Y-81.0
X65.6Y-83.0
X65.6Y-95.0
X65.6Y-97.0
X69.4Y-53.5
X69.4Y-56.5
X69.4Y-59.5
X69.5Y-67.0
X69.5Y-70.0
X69.5Y-73.0
X69.5Y-81.0
X69.5Y-84.0
X69.5Y-87.0
X69.5Y-95.0
X69.5Y-98.0
X69.5Y-101.0
X80.5Y-53.5
X80.5Y-56.5
X80.5Y-59.5
X80.6Y-67.0
X80.6Y-70.0
X80.6Y-73.0
X80.6Y-81.0
X80.6Y-84.0
X80.6Y-87.0
X80.6Y-95.0
X80.6Y-98.0
X80.6Y-101.0
X86.0Y-54.0
X86.0Y-96.0
X86.1Y-67.5
X86.1Y-81.211
X96.16Y-54.0
X96.16Y-96.0
X96.26Y-67.5
X96.26Y-81.211
X99.5Y-46.5
X101.0Y-58.5
X101.0Y-60.5
X101.0Y-72.0
X101.0Y-74.0
X101.0Y-100.0
X101.0Y-102.0
X101.1Y-86.5
X101.1Y-88.5
X101.5Y-46.5
T3
X84.5Y-58.5
X84.6Y-72.5
X84.6Y-87.0
X84.6Y-101.0
X89.5Y-46.0
X94.0Y-46.0
X101.0Y-53.5
X101.0Y-95.5
X101.1Y-67.0
X101.1Y-81.0
M30
