%TF.GenerationSoftware,KiCad,Pcbnew,10.0.0*%
%TF.CreationDate,2026-08-09T21:55:34-07:00*%
%TF.ProjectId,4ch_iepe_signalcond,3463685f-6965-4706-955f-7369676e616c,rev?*%
%TF.SameCoordinates,Original*%
%TF.FileFunction,Copper,L2,Bot*%
%TF.FilePolarity,Positive*%
%FSLAX46Y46*%
G04 Gerber Fmt 4.6, Leading zero omitted, Abs format (unit mm)*
G04 Created by KiCad (PCBNEW 10.0.0) date 2026-08-09 21:55:34*
%MOMM*%
%LPD*%
G01*
G04 APERTURE LIST*
%TA.AperFunction,ComponentPad*%
%ADD10C,2.000000*%
%TD*%
%TA.AperFunction,ComponentPad*%
%ADD11C,1.600000*%
%TD*%
%TA.AperFunction,ComponentPad*%
%ADD12R,1.200000X1.200000*%
%TD*%
%TA.AperFunction,ComponentPad*%
%ADD13C,1.200000*%
%TD*%
%TA.AperFunction,ComponentPad*%
%ADD14R,1.350000X1.350000*%
%TD*%
%TA.AperFunction,ComponentPad*%
%ADD15C,1.350000*%
%TD*%
%TA.AperFunction,ComponentPad*%
%ADD16R,1.150000X1.150000*%
%TD*%
%TA.AperFunction,ComponentPad*%
%ADD17C,1.150000*%
%TD*%
G04 APERTURE END LIST*
D10*
%TO.P,TP12,1,1_1*%
%TO.N,Net-(C2--)*%
X101100000Y-67000000D03*
%TD*%
D11*
%TO.P,R3,1*%
%TO.N,Net-(C3--)*%
X86100000Y-81211412D03*
%TO.P,R3,2*%
%TO.N,GND*%
X96260000Y-81211412D03*
%TD*%
D12*
%TO.P,D8,1,K_1*%
%TO.N,Net-(C3-+)*%
X69500000Y-84000000D03*
D13*
%TO.P,D8,2,A_2*%
%TO.N,+24V*%
X80600000Y-84000000D03*
%TD*%
D14*
%TO.P,J7,1,In_1*%
%TO.N,Net-(C3--)*%
X101100000Y-86500000D03*
D15*
%TO.P,J7,2,Ext_2*%
%TO.N,GND*%
X101100000Y-88500000D03*
%TD*%
D10*
%TO.P,TP99,1,1_1*%
%TO.N,+24V*%
X94000000Y-46000000D03*
%TD*%
D14*
%TO.P,J9,1,In_1*%
%TO.N,Net-(C4--)*%
X101000000Y-100000000D03*
D15*
%TO.P,J9,2,Ext_2*%
%TO.N,GND*%
X101000000Y-102000000D03*
%TD*%
D12*
%TO.P,D1,1,K_1*%
%TO.N,Net-(C1-+)*%
X69400000Y-59500000D03*
D13*
%TO.P,D1,2,A_2*%
%TO.N,+24V*%
X80500000Y-59500000D03*
%TD*%
D14*
%TO.P,J4,1,In_1*%
%TO.N,Net-(C2-+)*%
X65600000Y-66500000D03*
D15*
%TO.P,J4,2,Ext_2*%
%TO.N,GND*%
X65600000Y-68500000D03*
%TD*%
D12*
%TO.P,D7,1,K_1*%
%TO.N,Net-(C3-+)*%
X69500000Y-81000000D03*
D13*
%TO.P,D7,2,A_2*%
%TO.N,+24V*%
X80600000Y-81000000D03*
%TD*%
D14*
%TO.P,J1,1,In_1*%
%TO.N,Net-(C1-+)*%
X65500000Y-53500000D03*
D15*
%TO.P,J1,2,Ext_2*%
%TO.N,GND*%
X65500000Y-55500000D03*
%TD*%
D11*
%TO.P,R2,1*%
%TO.N,Net-(C2--)*%
X86100000Y-67500000D03*
%TO.P,R2,2*%
%TO.N,GND*%
X96260000Y-67500000D03*
%TD*%
D12*
%TO.P,D4,1,K_1*%
%TO.N,Net-(C2-+)*%
X69500000Y-67000000D03*
D13*
%TO.P,D4,2,A_2*%
%TO.N,+24V*%
X80600000Y-67000000D03*
%TD*%
D12*
%TO.P,D3,1,K_1*%
%TO.N,Net-(C1-+)*%
X69400000Y-56500000D03*
D13*
%TO.P,D3,2,A_2*%
%TO.N,+24V*%
X80500000Y-56500000D03*
%TD*%
D16*
%TO.P,C3,1,+_1*%
%TO.N,Net-(C3-+)*%
X91600000Y-87000000D03*
D17*
%TO.P,C3,2,-_2*%
%TO.N,Net-(C3--)*%
X93600000Y-87000000D03*
%TD*%
D10*
%TO.P,TP10,1,1_1*%
%TO.N,Net-(C1--)*%
X101000000Y-53500000D03*
%TD*%
D12*
%TO.P,D10,1,K_1*%
%TO.N,Net-(C4-+)*%
X69500000Y-95000000D03*
D13*
%TO.P,D10,2,A_2*%
%TO.N,+24V*%
X80600000Y-95000000D03*
%TD*%
D14*
%TO.P,J8,1,In_1*%
%TO.N,Net-(C4-+)*%
X65600000Y-95000000D03*
D15*
%TO.P,J8,2,Ext_2*%
%TO.N,GND*%
X65600000Y-97000000D03*
%TD*%
D12*
%TO.P,D12,1,K_1*%
%TO.N,Net-(C4-+)*%
X69500000Y-101000000D03*
D13*
%TO.P,D12,2,A_2*%
%TO.N,+24V*%
X80600000Y-101000000D03*
%TD*%
D12*
%TO.P,D11,1,K_1*%
%TO.N,Net-(C4-+)*%
X69500000Y-98000000D03*
D13*
%TO.P,D11,2,A_2*%
%TO.N,+24V*%
X80600000Y-98000000D03*
%TD*%
D14*
%TO.P,J5,1,In_1*%
%TO.N,Net-(C2--)*%
X101000000Y-72000000D03*
D15*
%TO.P,J5,2,Ext_2*%
%TO.N,GND*%
X101000000Y-74000000D03*
%TD*%
D10*
%TO.P,TP4,1,1_1*%
%TO.N,Net-(C4-+)*%
X84600000Y-101000000D03*
%TD*%
%TO.P,TP13,1,1_1*%
%TO.N,Net-(C3--)*%
X101100000Y-81000000D03*
%TD*%
D14*
%TO.P,J3,1,Pin_1_1*%
%TO.N,+24V*%
X101500000Y-46500000D03*
D15*
%TO.P,J3,2,Pin_2_2*%
%TO.N,GND*%
X99500000Y-46500000D03*
%TD*%
D12*
%TO.P,D2,1,K_1*%
%TO.N,Net-(C1-+)*%
X69400000Y-53500000D03*
D13*
%TO.P,D2,2,A_2*%
%TO.N,+24V*%
X80500000Y-53500000D03*
%TD*%
D12*
%TO.P,D9,1,K_1*%
%TO.N,Net-(C3-+)*%
X69500000Y-87000000D03*
D13*
%TO.P,D9,2,A_2*%
%TO.N,+24V*%
X80600000Y-87000000D03*
%TD*%
D10*
%TO.P,TP1,1,1_1*%
%TO.N,Net-(C1-+)*%
X84500000Y-58500000D03*
%TD*%
D14*
%TO.P,J6,1,In_1*%
%TO.N,Net-(C3-+)*%
X65600000Y-81000000D03*
D15*
%TO.P,J6,2,Ext_2*%
%TO.N,GND*%
X65600000Y-83000000D03*
%TD*%
D10*
%TO.P,TP14,1,1_1*%
%TO.N,Net-(C4--)*%
X101000000Y-95500000D03*
%TD*%
%TO.P,TP3,1,1_1*%
%TO.N,Net-(C3-+)*%
X84600000Y-87000000D03*
%TD*%
D11*
%TO.P,R1,1*%
%TO.N,Net-(C1--)*%
X86000000Y-54000000D03*
%TO.P,R1,2*%
%TO.N,GND*%
X96160000Y-54000000D03*
%TD*%
D10*
%TO.P,TP2,1,1_1*%
%TO.N,Net-(C2-+)*%
X84600000Y-72500000D03*
%TD*%
D16*
%TO.P,C1,1,+_1*%
%TO.N,Net-(C1-+)*%
X91000000Y-59500000D03*
D17*
%TO.P,C1,2,-_2*%
%TO.N,Net-(C1--)*%
X93000000Y-59500000D03*
%TD*%
D16*
%TO.P,C4,1,+_1*%
%TO.N,Net-(C4-+)*%
X91100000Y-101000000D03*
D17*
%TO.P,C4,2,-_2*%
%TO.N,Net-(C4--)*%
X93100000Y-101000000D03*
%TD*%
D12*
%TO.P,D5,1,K_1*%
%TO.N,Net-(C2-+)*%
X69500000Y-70000000D03*
D13*
%TO.P,D5,2,A_2*%
%TO.N,+24V*%
X80600000Y-70000000D03*
%TD*%
D16*
%TO.P,C2,1,+_1*%
%TO.N,Net-(C2-+)*%
X91100000Y-72500000D03*
D17*
%TO.P,C2,2,-_2*%
%TO.N,Net-(C2--)*%
X93100000Y-72500000D03*
%TD*%
D12*
%TO.P,D6,1,K_1*%
%TO.N,Net-(C2-+)*%
X69500000Y-73000000D03*
D13*
%TO.P,D6,2,A_2*%
%TO.N,+24V*%
X80600000Y-73000000D03*
%TD*%
D11*
%TO.P,R4,1*%
%TO.N,Net-(C4--)*%
X86000000Y-96000000D03*
%TO.P,R4,2*%
%TO.N,GND*%
X96160000Y-96000000D03*
%TD*%
D10*
%TO.P,TP98,1,1_1*%
%TO.N,GND*%
X89500000Y-46000000D03*
%TD*%
D14*
%TO.P,J2,1,In_1*%
%TO.N,Net-(C1--)*%
X101000000Y-58500000D03*
D15*
%TO.P,J2,2,Ext_2*%
%TO.N,GND*%
X101000000Y-60500000D03*
%TD*%
%TA.AperFunction,Conductor*%
%TO.N,GND*%
G36*
X112442036Y-40558024D02*
G01*
X112488045Y-40610606D01*
X112499500Y-40662661D01*
X112499500Y-109375500D01*
X112479815Y-109442539D01*
X112427011Y-109488294D01*
X112375500Y-109499500D01*
X58691912Y-109499500D01*
X58624873Y-109479815D01*
X58579118Y-109427011D01*
X58567912Y-109375562D01*
X58566637Y-106818838D01*
X58565670Y-104878711D01*
X61149500Y-104878711D01*
X61149500Y-105121288D01*
X61181161Y-105361785D01*
X61243947Y-105596104D01*
X61336773Y-105820205D01*
X61336776Y-105820212D01*
X61458064Y-106030289D01*
X61458066Y-106030292D01*
X61458067Y-106030293D01*
X61605733Y-106222736D01*
X61605739Y-106222743D01*
X61777256Y-106394260D01*
X61777262Y-106394265D01*
X61969711Y-106541936D01*
X62179788Y-106663224D01*
X62403900Y-106756054D01*
X62638211Y-106818838D01*
X62818586Y-106842584D01*
X62878711Y-106850500D01*
X62878712Y-106850500D01*
X63121289Y-106850500D01*
X63169388Y-106844167D01*
X63361789Y-106818838D01*
X63596100Y-106756054D01*
X63820212Y-106663224D01*
X64030289Y-106541936D01*
X64222738Y-106394265D01*
X64394265Y-106222738D01*
X64541936Y-106030289D01*
X64663224Y-105820212D01*
X64756054Y-105596100D01*
X64818838Y-105361789D01*
X64850500Y-105121288D01*
X64850500Y-104878712D01*
X64850500Y-104878711D01*
X106149500Y-104878711D01*
X106149500Y-105121288D01*
X106181161Y-105361785D01*
X106243947Y-105596104D01*
X106336773Y-105820205D01*
X106336776Y-105820212D01*
X106458064Y-106030289D01*
X106458066Y-106030292D01*
X106458067Y-106030293D01*
X106605733Y-106222736D01*
X106605739Y-106222743D01*
X106777256Y-106394260D01*
X106777262Y-106394265D01*
X106969711Y-106541936D01*
X107179788Y-106663224D01*
X107403900Y-106756054D01*
X107638211Y-106818838D01*
X107818586Y-106842584D01*
X107878711Y-106850500D01*
X107878712Y-106850500D01*
X108121289Y-106850500D01*
X108169388Y-106844167D01*
X108361789Y-106818838D01*
X108596100Y-106756054D01*
X108820212Y-106663224D01*
X109030289Y-106541936D01*
X109222738Y-106394265D01*
X109394265Y-106222738D01*
X109541936Y-106030289D01*
X109663224Y-105820212D01*
X109756054Y-105596100D01*
X109818838Y-105361789D01*
X109850500Y-105121288D01*
X109850500Y-104878712D01*
X109818838Y-104638211D01*
X109756054Y-104403900D01*
X109663224Y-104179788D01*
X109541936Y-103969711D01*
X109394265Y-103777262D01*
X109394260Y-103777256D01*
X109222743Y-103605739D01*
X109222736Y-103605733D01*
X109030293Y-103458067D01*
X109030292Y-103458066D01*
X109030289Y-103458064D01*
X108820212Y-103336776D01*
X108820205Y-103336773D01*
X108596104Y-103243947D01*
X108361785Y-103181161D01*
X108121289Y-103149500D01*
X108121288Y-103149500D01*
X107878712Y-103149500D01*
X107878711Y-103149500D01*
X107638214Y-103181161D01*
X107403895Y-103243947D01*
X107179794Y-103336773D01*
X107179785Y-103336777D01*
X106969706Y-103458067D01*
X106777263Y-103605733D01*
X106777256Y-103605739D01*
X106605739Y-103777256D01*
X106605733Y-103777263D01*
X106458067Y-103969706D01*
X106336777Y-104179785D01*
X106336773Y-104179794D01*
X106243947Y-104403895D01*
X106181161Y-104638214D01*
X106149500Y-104878711D01*
X64850500Y-104878711D01*
X64818838Y-104638211D01*
X64756054Y-104403900D01*
X64663224Y-104179788D01*
X64541936Y-103969711D01*
X64394265Y-103777262D01*
X64394260Y-103777256D01*
X64222743Y-103605739D01*
X64222736Y-103605733D01*
X64030293Y-103458067D01*
X64030292Y-103458066D01*
X64030289Y-103458064D01*
X63820212Y-103336776D01*
X63820205Y-103336773D01*
X63596104Y-103243947D01*
X63361785Y-103181161D01*
X63121289Y-103149500D01*
X63121288Y-103149500D01*
X62878712Y-103149500D01*
X62878711Y-103149500D01*
X62638214Y-103181161D01*
X62403895Y-103243947D01*
X62179794Y-103336773D01*
X62179785Y-103336777D01*
X61969706Y-103458067D01*
X61777263Y-103605733D01*
X61777256Y-103605739D01*
X61605739Y-103777256D01*
X61605733Y-103777263D01*
X61458067Y-103969706D01*
X61336777Y-104179785D01*
X61336773Y-104179794D01*
X61243947Y-104403895D01*
X61181161Y-104638214D01*
X61149500Y-104878711D01*
X58565670Y-104878711D01*
X58563413Y-100352135D01*
X68399500Y-100352135D01*
X68399500Y-101647870D01*
X68399501Y-101647876D01*
X68405908Y-101707483D01*
X68456202Y-101842328D01*
X68456206Y-101842335D01*
X68542452Y-101957544D01*
X68542455Y-101957547D01*
X68657664Y-102043793D01*
X68657671Y-102043797D01*
X68792517Y-102094091D01*
X68792516Y-102094091D01*
X68799444Y-102094835D01*
X68852127Y-102100500D01*
X70147872Y-102100499D01*
X70207483Y-102094091D01*
X70342331Y-102043796D01*
X70457546Y-101957546D01*
X70543796Y-101842331D01*
X70594091Y-101707483D01*
X70600500Y-101647873D01*
X70600499Y-100913389D01*
X79499500Y-100913389D01*
X79499500Y-101086611D01*
X79501073Y-101096540D01*
X79525670Y-101251847D01*
X79526598Y-101257701D01*
X79580127Y-101422445D01*
X79658768Y-101576788D01*
X79760586Y-101716928D01*
X79883072Y-101839414D01*
X80023212Y-101941232D01*
X80177555Y-102019873D01*
X80342299Y-102073402D01*
X80513389Y-102100500D01*
X80513390Y-102100500D01*
X80686610Y-102100500D01*
X80686611Y-102100500D01*
X80857701Y-102073402D01*
X81022445Y-102019873D01*
X81176788Y-101941232D01*
X81316928Y-101839414D01*
X81439414Y-101716928D01*
X81541232Y-101576788D01*
X81619873Y-101422445D01*
X81673402Y-101257701D01*
X81700500Y-101086611D01*
X81700500Y-100913389D01*
X81695513Y-100881902D01*
X83099500Y-100881902D01*
X83099500Y-101118097D01*
X83136446Y-101351368D01*
X83209433Y-101575996D01*
X83298916Y-101751615D01*
X83316657Y-101786433D01*
X83455483Y-101977510D01*
X83622490Y-102144517D01*
X83813567Y-102283343D01*
X83912991Y-102334002D01*
X84024003Y-102390566D01*
X84024005Y-102390566D01*
X84024008Y-102390568D01*
X84053037Y-102400000D01*
X84248631Y-102463553D01*
X84481903Y-102500500D01*
X84481908Y-102500500D01*
X84718097Y-102500500D01*
X84951368Y-102463553D01*
X85175992Y-102390568D01*
X85386433Y-102283343D01*
X85577510Y-102144517D01*
X85744517Y-101977510D01*
X85883343Y-101786433D01*
X85990568Y-101575992D01*
X86063553Y-101351368D01*
X86076648Y-101268690D01*
X86100500Y-101118097D01*
X86100500Y-100881902D01*
X86063553Y-100648631D01*
X85997532Y-100445442D01*
X85990568Y-100424008D01*
X85990566Y-100424005D01*
X85990566Y-100424003D01*
X85966685Y-100377135D01*
X90024500Y-100377135D01*
X90024500Y-101622870D01*
X90024501Y-101622876D01*
X90030908Y-101682483D01*
X90081202Y-101817328D01*
X90081206Y-101817335D01*
X90167452Y-101932544D01*
X90167455Y-101932547D01*
X90282664Y-102018793D01*
X90282671Y-102018797D01*
X90417517Y-102069091D01*
X90417516Y-102069091D01*
X90424444Y-102069835D01*
X90477127Y-102075500D01*
X91722872Y-102075499D01*
X91782483Y-102069091D01*
X91917331Y-102018796D01*
X92032546Y-101932546D01*
X92118796Y-101817331D01*
X92126764Y-101795966D01*
X92168633Y-101740032D01*
X92234096Y-101715612D01*
X92302370Y-101730461D01*
X92330628Y-101751615D01*
X92399360Y-101820347D01*
X92399365Y-101820351D01*
X92484773Y-101882403D01*
X92536315Y-101919850D01*
X92632425Y-101968820D01*
X92687146Y-101996703D01*
X92687148Y-101996703D01*
X92687151Y-101996705D01*
X92773450Y-102024745D01*
X92848152Y-102049018D01*
X93015351Y-102075500D01*
X93015356Y-102075500D01*
X93184649Y-102075500D01*
X93351847Y-102049018D01*
X93512849Y-101996705D01*
X93663685Y-101919850D01*
X93800641Y-101820346D01*
X93920346Y-101700641D01*
X94019850Y-101563685D01*
X94096705Y-101412849D01*
X94149018Y-101251847D01*
X94161110Y-101175500D01*
X94175500Y-101084649D01*
X94175500Y-100915350D01*
X94149018Y-100748152D01*
X94096703Y-100587146D01*
X94024500Y-100445442D01*
X94019850Y-100436315D01*
X94007137Y-100418817D01*
X93920351Y-100299365D01*
X93920347Y-100299360D01*
X93800639Y-100179652D01*
X93800634Y-100179648D01*
X93663688Y-100080152D01*
X93663687Y-100080151D01*
X93663685Y-100080150D01*
X93589699Y-100042452D01*
X93512853Y-100003296D01*
X93351847Y-99950981D01*
X93184649Y-99924500D01*
X93184644Y-99924500D01*
X93015356Y-99924500D01*
X93015351Y-99924500D01*
X92848152Y-99950981D01*
X92687146Y-100003296D01*
X92536311Y-100080152D01*
X92399366Y-100179647D01*
X92330628Y-100248385D01*
X92269304Y-100281869D01*
X92199613Y-100276884D01*
X92143679Y-100235013D01*
X92126764Y-100204033D01*
X92118797Y-100182671D01*
X92118793Y-100182664D01*
X92032547Y-100067455D01*
X92032544Y-100067452D01*
X91917335Y-99981206D01*
X91917328Y-99981202D01*
X91782482Y-99930908D01*
X91782483Y-99930908D01*
X91722883Y-99924501D01*
X91722881Y-99924500D01*
X91722873Y-99924500D01*
X91722864Y-99924500D01*
X90477129Y-99924500D01*
X90477123Y-99924501D01*
X90417516Y-99930908D01*
X90282671Y-99981202D01*
X90282664Y-99981206D01*
X90167455Y-100067452D01*
X90167452Y-100067455D01*
X90081206Y-100182664D01*
X90081202Y-100182671D01*
X90030908Y-100317517D01*
X90024501Y-100377116D01*
X90024500Y-100377135D01*
X85966685Y-100377135D01*
X85923570Y-100292517D01*
X85883343Y-100213567D01*
X85744517Y-100022490D01*
X85577510Y-99855483D01*
X85386433Y-99716657D01*
X85175996Y-99609433D01*
X84951368Y-99536446D01*
X84718097Y-99499500D01*
X84718092Y-99499500D01*
X84481908Y-99499500D01*
X84481903Y-99499500D01*
X84248631Y-99536446D01*
X84024003Y-99609433D01*
X83813566Y-99716657D01*
X83704550Y-99795862D01*
X83622490Y-99855483D01*
X83622488Y-99855485D01*
X83622487Y-99855485D01*
X83455485Y-100022487D01*
X83455485Y-100022488D01*
X83455483Y-100022490D01*
X83413589Y-100080152D01*
X83316657Y-100213566D01*
X83209433Y-100424003D01*
X83136446Y-100648631D01*
X83099500Y-100881902D01*
X81695513Y-100881902D01*
X81679767Y-100782483D01*
X81673403Y-100742303D01*
X81673402Y-100742302D01*
X81673402Y-100742299D01*
X81619873Y-100577555D01*
X81541232Y-100423212D01*
X81439414Y-100283072D01*
X81316928Y-100160586D01*
X81176788Y-100058768D01*
X81022445Y-99980127D01*
X80857701Y-99926598D01*
X80857699Y-99926597D01*
X80857698Y-99926597D01*
X80726271Y-99905781D01*
X80686611Y-99899500D01*
X80513389Y-99899500D01*
X80473728Y-99905781D01*
X80342302Y-99926597D01*
X80177552Y-99980128D01*
X80023211Y-100058768D01*
X79943256Y-100116859D01*
X79883072Y-100160586D01*
X79883070Y-100160588D01*
X79883069Y-100160588D01*
X79760588Y-100283069D01*
X79760588Y-100283070D01*
X79760586Y-100283072D01*
X79735560Y-100317517D01*
X79658768Y-100423211D01*
X79580128Y-100577552D01*
X79580127Y-100577554D01*
X79580127Y-100577555D01*
X79553362Y-100659927D01*
X79526597Y-100742302D01*
X79520233Y-100782483D01*
X79499500Y-100913389D01*
X70600499Y-100913389D01*
X70600499Y-100352128D01*
X70594827Y-100299360D01*
X70594091Y-100292516D01*
X70543797Y-100157671D01*
X70543793Y-100157664D01*
X70457547Y-100042455D01*
X70457544Y-100042452D01*
X70342335Y-99956206D01*
X70342328Y-99956202D01*
X70207482Y-99905908D01*
X70207483Y-99905908D01*
X70147883Y-99899501D01*
X70147881Y-99899500D01*
X70147873Y-99899500D01*
X70147864Y-99899500D01*
X68852129Y-99899500D01*
X68852123Y-99899501D01*
X68792516Y-99905908D01*
X68657671Y-99956202D01*
X68657664Y-99956206D01*
X68542455Y-100042452D01*
X68542452Y-100042455D01*
X68456206Y-100157664D01*
X68456202Y-100157671D01*
X68405908Y-100292517D01*
X68399501Y-100352116D01*
X68399501Y-100352123D01*
X68399500Y-100352135D01*
X58563413Y-100352135D01*
X58562877Y-99277135D01*
X99824500Y-99277135D01*
X99824500Y-100722870D01*
X99824501Y-100722876D01*
X99830908Y-100782483D01*
X99881202Y-100917328D01*
X99881206Y-100917335D01*
X99967452Y-101032544D01*
X99967455Y-101032547D01*
X100052938Y-101096540D01*
X100094809Y-101152473D01*
X100099793Y-101222165D01*
X100078946Y-101268690D01*
X99995051Y-101384163D01*
X99911084Y-101548956D01*
X99911083Y-101548959D01*
X99853933Y-101724852D01*
X99825000Y-101907526D01*
X99825000Y-102092473D01*
X99853933Y-102275147D01*
X99911083Y-102451040D01*
X99911084Y-102451043D01*
X99995050Y-102615834D01*
X100010015Y-102636430D01*
X100600000Y-102046445D01*
X100600000Y-102052661D01*
X100627259Y-102154394D01*
X100679920Y-102245606D01*
X100754394Y-102320080D01*
X100845606Y-102372741D01*
X100947339Y-102400000D01*
X100953553Y-102400000D01*
X100363568Y-102989983D01*
X100363568Y-102989984D01*
X100384165Y-103004949D01*
X100548956Y-103088915D01*
X100548959Y-103088916D01*
X100724852Y-103146066D01*
X100907527Y-103175000D01*
X101092473Y-103175000D01*
X101275147Y-103146066D01*
X101451040Y-103088916D01*
X101451043Y-103088915D01*
X101615836Y-103004947D01*
X101615845Y-103004942D01*
X101636430Y-102989984D01*
X101636431Y-102989983D01*
X101046448Y-102400000D01*
X101052661Y-102400000D01*
X101154394Y-102372741D01*
X101245606Y-102320080D01*
X101320080Y-102245606D01*
X101372741Y-102154394D01*
X101400000Y-102052661D01*
X101400000Y-102046447D01*
X101989983Y-102636430D01*
X101989984Y-102636430D01*
X102004942Y-102615845D01*
X102004947Y-102615836D01*
X102088915Y-102451043D01*
X102088916Y-102451040D01*
X102146066Y-102275147D01*
X102175000Y-102092473D01*
X102175000Y-101907526D01*
X102146066Y-101724852D01*
X102088916Y-101548959D01*
X102088915Y-101548956D01*
X102004947Y-101384161D01*
X101921054Y-101268691D01*
X101897574Y-101202884D01*
X101913400Y-101134831D01*
X101947058Y-101096542D01*
X102032546Y-101032546D01*
X102118796Y-100917331D01*
X102169091Y-100782483D01*
X102175500Y-100722873D01*
X102175499Y-99277128D01*
X102169091Y-99217517D01*
X102118796Y-99082669D01*
X102118795Y-99082668D01*
X102118793Y-99082664D01*
X102032547Y-98967455D01*
X102032544Y-98967452D01*
X101917335Y-98881206D01*
X101917328Y-98881202D01*
X101782482Y-98830908D01*
X101782483Y-98830908D01*
X101722883Y-98824501D01*
X101722881Y-98824500D01*
X101722873Y-98824500D01*
X101722864Y-98824500D01*
X100277129Y-98824500D01*
X100277123Y-98824501D01*
X100217516Y-98830908D01*
X100082671Y-98881202D01*
X100082664Y-98881206D01*
X99967455Y-98967452D01*
X99967452Y-98967455D01*
X99881206Y-99082664D01*
X99881202Y-99082671D01*
X99830908Y-99217517D01*
X99824501Y-99277116D01*
X99824501Y-99277123D01*
X99824500Y-99277135D01*
X58562877Y-99277135D01*
X58560384Y-94277135D01*
X64424500Y-94277135D01*
X64424500Y-95722870D01*
X64424501Y-95722876D01*
X64430908Y-95782483D01*
X64481202Y-95917328D01*
X64481206Y-95917335D01*
X64567452Y-96032544D01*
X64567455Y-96032547D01*
X64652938Y-96096540D01*
X64694809Y-96152473D01*
X64699793Y-96222165D01*
X64678946Y-96268690D01*
X64595051Y-96384163D01*
X64511084Y-96548956D01*
X64511083Y-96548959D01*
X64453933Y-96724852D01*
X64425000Y-96907526D01*
X64425000Y-97092473D01*
X64453933Y-97275147D01*
X64511083Y-97451040D01*
X64511084Y-97451043D01*
X64595050Y-97615834D01*
X64610015Y-97636430D01*
X65200000Y-97046445D01*
X65200000Y-97052661D01*
X65227259Y-97154394D01*
X65279920Y-97245606D01*
X65354394Y-97320080D01*
X65445606Y-97372741D01*
X65547339Y-97400000D01*
X65553553Y-97400000D01*
X64963568Y-97989983D01*
X64963568Y-97989984D01*
X64984165Y-98004949D01*
X65148956Y-98088915D01*
X65148959Y-98088916D01*
X65324852Y-98146066D01*
X65507527Y-98175000D01*
X65692473Y-98175000D01*
X65875147Y-98146066D01*
X66051040Y-98088916D01*
X66051043Y-98088915D01*
X66215836Y-98004947D01*
X66215845Y-98004942D01*
X66236430Y-97989984D01*
X66236431Y-97989983D01*
X65646448Y-97400000D01*
X65652661Y-97400000D01*
X65754394Y-97372741D01*
X65845606Y-97320080D01*
X65920080Y-97245606D01*
X65972741Y-97154394D01*
X66000000Y-97052661D01*
X66000000Y-97046447D01*
X66589983Y-97636430D01*
X66589984Y-97636430D01*
X66604942Y-97615845D01*
X66604947Y-97615836D01*
X66688915Y-97451043D01*
X66688916Y-97451040D01*
X66721052Y-97352135D01*
X68399500Y-97352135D01*
X68399500Y-98647870D01*
X68399501Y-98647876D01*
X68405908Y-98707483D01*
X68456202Y-98842328D01*
X68456206Y-98842335D01*
X68542452Y-98957544D01*
X68542455Y-98957547D01*
X68657664Y-99043793D01*
X68657671Y-99043797D01*
X68792517Y-99094091D01*
X68792516Y-99094091D01*
X68799444Y-99094835D01*
X68852127Y-99100500D01*
X70147872Y-99100499D01*
X70207483Y-99094091D01*
X70342331Y-99043796D01*
X70457546Y-98957546D01*
X70543796Y-98842331D01*
X70594091Y-98707483D01*
X70600500Y-98647873D01*
X70600499Y-97913389D01*
X79499500Y-97913389D01*
X79499500Y-98086611D01*
X79526598Y-98257701D01*
X79580127Y-98422445D01*
X79658768Y-98576788D01*
X79760586Y-98716928D01*
X79883072Y-98839414D01*
X80023212Y-98941232D01*
X80177555Y-99019873D01*
X80342299Y-99073402D01*
X80513389Y-99100500D01*
X80513390Y-99100500D01*
X80686610Y-99100500D01*
X80686611Y-99100500D01*
X80857701Y-99073402D01*
X81022445Y-99019873D01*
X81176788Y-98941232D01*
X81316928Y-98839414D01*
X81439414Y-98716928D01*
X81541232Y-98576788D01*
X81619873Y-98422445D01*
X81673402Y-98257701D01*
X81700500Y-98086611D01*
X81700500Y-97913389D01*
X81673402Y-97742299D01*
X81619873Y-97577555D01*
X81541232Y-97423212D01*
X81439414Y-97283072D01*
X81316928Y-97160586D01*
X81176788Y-97058768D01*
X81022445Y-96980127D01*
X80857701Y-96926598D01*
X80857699Y-96926597D01*
X80857698Y-96926597D01*
X80726271Y-96905781D01*
X80686611Y-96899500D01*
X80513389Y-96899500D01*
X80473728Y-96905781D01*
X80342302Y-96926597D01*
X80177552Y-96980128D01*
X80023211Y-97058768D01*
X79976821Y-97092473D01*
X79883072Y-97160586D01*
X79883070Y-97160588D01*
X79883069Y-97160588D01*
X79760588Y-97283069D01*
X79760588Y-97283070D01*
X79760586Y-97283072D01*
X79753725Y-97292516D01*
X79658768Y-97423211D01*
X79580128Y-97577552D01*
X79526597Y-97742302D01*
X79499500Y-97913389D01*
X70600499Y-97913389D01*
X70600499Y-97352128D01*
X70594091Y-97292517D01*
X70590568Y-97283072D01*
X70543797Y-97157671D01*
X70543793Y-97157664D01*
X70457547Y-97042455D01*
X70457544Y-97042452D01*
X70342335Y-96956206D01*
X70342328Y-96956202D01*
X70207482Y-96905908D01*
X70207483Y-96905908D01*
X70147883Y-96899501D01*
X70147881Y-96899500D01*
X70147873Y-96899500D01*
X70147864Y-96899500D01*
X68852129Y-96899500D01*
X68852123Y-96899501D01*
X68792516Y-96905908D01*
X68657671Y-96956202D01*
X68657664Y-96956206D01*
X68542455Y-97042452D01*
X68542452Y-97042455D01*
X68456206Y-97157664D01*
X68456202Y-97157671D01*
X68405908Y-97292517D01*
X68399501Y-97352116D01*
X68399501Y-97352123D01*
X68399500Y-97352135D01*
X66721052Y-97352135D01*
X66734584Y-97310488D01*
X66746066Y-97275147D01*
X66775000Y-97092473D01*
X66775000Y-96907526D01*
X66746066Y-96724852D01*
X66688916Y-96548959D01*
X66688915Y-96548956D01*
X66604947Y-96384161D01*
X66521054Y-96268691D01*
X66497574Y-96202884D01*
X66513400Y-96134831D01*
X66547058Y-96096542D01*
X66632546Y-96032546D01*
X66718796Y-95917331D01*
X66769091Y-95782483D01*
X66775500Y-95722873D01*
X66775499Y-94352135D01*
X68399500Y-94352135D01*
X68399500Y-95647870D01*
X68399501Y-95647876D01*
X68405908Y-95707483D01*
X68456202Y-95842328D01*
X68456206Y-95842335D01*
X68542452Y-95957544D01*
X68542455Y-95957547D01*
X68657664Y-96043793D01*
X68657671Y-96043797D01*
X68792517Y-96094091D01*
X68792516Y-96094091D01*
X68799444Y-96094835D01*
X68852127Y-96100500D01*
X70147872Y-96100499D01*
X70207483Y-96094091D01*
X70342331Y-96043796D01*
X70457546Y-95957546D01*
X70543796Y-95842331D01*
X70594091Y-95707483D01*
X70600500Y-95647873D01*
X70600499Y-94913389D01*
X79499500Y-94913389D01*
X79499500Y-95086611D01*
X79526598Y-95257701D01*
X79580127Y-95422445D01*
X79658768Y-95576788D01*
X79760586Y-95716928D01*
X79883072Y-95839414D01*
X80023212Y-95941232D01*
X80177555Y-96019873D01*
X80342299Y-96073402D01*
X80513389Y-96100500D01*
X80513390Y-96100500D01*
X80686610Y-96100500D01*
X80686611Y-96100500D01*
X80857701Y-96073402D01*
X81022445Y-96019873D01*
X81176788Y-95941232D01*
X81236776Y-95897648D01*
X84699500Y-95897648D01*
X84699500Y-96102351D01*
X84731522Y-96304534D01*
X84794781Y-96499223D01*
X84858691Y-96624653D01*
X84887585Y-96681359D01*
X84887715Y-96681613D01*
X85008028Y-96847213D01*
X85152786Y-96991971D01*
X85273226Y-97079474D01*
X85318390Y-97112287D01*
X85407457Y-97157669D01*
X85500776Y-97205218D01*
X85500778Y-97205218D01*
X85500781Y-97205220D01*
X85605137Y-97239127D01*
X85695465Y-97268477D01*
X85787595Y-97283069D01*
X85897648Y-97300500D01*
X85897649Y-97300500D01*
X86102351Y-97300500D01*
X86102352Y-97300500D01*
X86304534Y-97268477D01*
X86499219Y-97205220D01*
X86681610Y-97112287D01*
X86777730Y-97042452D01*
X86847213Y-96991971D01*
X86847215Y-96991968D01*
X86847219Y-96991966D01*
X86991966Y-96847219D01*
X86991968Y-96847215D01*
X86991971Y-96847213D01*
X87059407Y-96754394D01*
X87112287Y-96681610D01*
X87205220Y-96499219D01*
X87268477Y-96304534D01*
X87300500Y-96102352D01*
X87300500Y-95897682D01*
X94860000Y-95897682D01*
X94860000Y-96102317D01*
X94892009Y-96304417D01*
X94955244Y-96499031D01*
X95048141Y-96681350D01*
X95048147Y-96681359D01*
X95080523Y-96725921D01*
X95080524Y-96725922D01*
X95760000Y-96046446D01*
X95760000Y-96052661D01*
X95787259Y-96154394D01*
X95839920Y-96245606D01*
X95914394Y-96320080D01*
X96005606Y-96372741D01*
X96107339Y-96400000D01*
X96113553Y-96400000D01*
X95434076Y-97079474D01*
X95478650Y-97111859D01*
X95660968Y-97204755D01*
X95855582Y-97267990D01*
X96057683Y-97300000D01*
X96262317Y-97300000D01*
X96464417Y-97267990D01*
X96659031Y-97204755D01*
X96841349Y-97111859D01*
X96885921Y-97079474D01*
X96206447Y-96400000D01*
X96212661Y-96400000D01*
X96314394Y-96372741D01*
X96405606Y-96320080D01*
X96480080Y-96245606D01*
X96532741Y-96154394D01*
X96560000Y-96052661D01*
X96560000Y-96046447D01*
X97239474Y-96725921D01*
X97271859Y-96681349D01*
X97364755Y-96499031D01*
X97427990Y-96304417D01*
X97460000Y-96102317D01*
X97460000Y-95897682D01*
X97427990Y-95695582D01*
X97364755Y-95500968D01*
X97330292Y-95433331D01*
X97304088Y-95381902D01*
X99499500Y-95381902D01*
X99499500Y-95618097D01*
X99536446Y-95851368D01*
X99609433Y-96075996D01*
X99707616Y-96268690D01*
X99716657Y-96286433D01*
X99855483Y-96477510D01*
X100022490Y-96644517D01*
X100213567Y-96783343D01*
X100312991Y-96834002D01*
X100424003Y-96890566D01*
X100424005Y-96890566D01*
X100424008Y-96890568D01*
X100534897Y-96926598D01*
X100648631Y-96963553D01*
X100881903Y-97000500D01*
X100881908Y-97000500D01*
X101118097Y-97000500D01*
X101351368Y-96963553D01*
X101575992Y-96890568D01*
X101786433Y-96783343D01*
X101977510Y-96644517D01*
X102144517Y-96477510D01*
X102283343Y-96286433D01*
X102390568Y-96075992D01*
X102463553Y-95851368D01*
X102474463Y-95782483D01*
X102500500Y-95618097D01*
X102500500Y-95381902D01*
X102463553Y-95148631D01*
X102390566Y-94924003D01*
X102324959Y-94795244D01*
X102283343Y-94713567D01*
X102144517Y-94522490D01*
X101977510Y-94355483D01*
X101786433Y-94216657D01*
X101575996Y-94109433D01*
X101351368Y-94036446D01*
X101118097Y-93999500D01*
X101118092Y-93999500D01*
X100881908Y-93999500D01*
X100881903Y-93999500D01*
X100648631Y-94036446D01*
X100424003Y-94109433D01*
X100213566Y-94216657D01*
X100122155Y-94283072D01*
X100022490Y-94355483D01*
X100022488Y-94355485D01*
X100022487Y-94355485D01*
X99855485Y-94522487D01*
X99855485Y-94522488D01*
X99855483Y-94522490D01*
X99815478Y-94577552D01*
X99716657Y-94713566D01*
X99609433Y-94924003D01*
X99536446Y-95148631D01*
X99499500Y-95381902D01*
X97304088Y-95381902D01*
X97271859Y-95318650D01*
X97239474Y-95274077D01*
X97239474Y-95274076D01*
X96560000Y-95953551D01*
X96560000Y-95947339D01*
X96532741Y-95845606D01*
X96480080Y-95754394D01*
X96405606Y-95679920D01*
X96314394Y-95627259D01*
X96212661Y-95600000D01*
X96206446Y-95600000D01*
X96885922Y-94920524D01*
X96885921Y-94920523D01*
X96841359Y-94888147D01*
X96841350Y-94888141D01*
X96659031Y-94795244D01*
X96464417Y-94732009D01*
X96262317Y-94700000D01*
X96057683Y-94700000D01*
X95855582Y-94732009D01*
X95660968Y-94795244D01*
X95478644Y-94888143D01*
X95434077Y-94920523D01*
X95434077Y-94920524D01*
X96113554Y-95600000D01*
X96107339Y-95600000D01*
X96005606Y-95627259D01*
X95914394Y-95679920D01*
X95839920Y-95754394D01*
X95787259Y-95845606D01*
X95760000Y-95947339D01*
X95760000Y-95953553D01*
X95080524Y-95274077D01*
X95080523Y-95274077D01*
X95048143Y-95318644D01*
X94955244Y-95500968D01*
X94892009Y-95695582D01*
X94860000Y-95897682D01*
X87300500Y-95897682D01*
X87300500Y-95897648D01*
X87291738Y-95842328D01*
X87268477Y-95695465D01*
X87229916Y-95576788D01*
X87205220Y-95500781D01*
X87205218Y-95500778D01*
X87205218Y-95500776D01*
X87112419Y-95318650D01*
X87112287Y-95318390D01*
X87080092Y-95274077D01*
X86991971Y-95152786D01*
X86847213Y-95008028D01*
X86681613Y-94887715D01*
X86681612Y-94887714D01*
X86681610Y-94887713D01*
X86624653Y-94858691D01*
X86499223Y-94794781D01*
X86304534Y-94731522D01*
X86129995Y-94703878D01*
X86102352Y-94699500D01*
X85897648Y-94699500D01*
X85873329Y-94703351D01*
X85695465Y-94731522D01*
X85500776Y-94794781D01*
X85318386Y-94887715D01*
X85152786Y-95008028D01*
X85008028Y-95152786D01*
X84887715Y-95318386D01*
X84794781Y-95500776D01*
X84731522Y-95695465D01*
X84699500Y-95897648D01*
X81236776Y-95897648D01*
X81316928Y-95839414D01*
X81439414Y-95716928D01*
X81541232Y-95576788D01*
X81619873Y-95422445D01*
X81673402Y-95257701D01*
X81700500Y-95086611D01*
X81700500Y-94913389D01*
X81673402Y-94742299D01*
X81619873Y-94577555D01*
X81541232Y-94423212D01*
X81439414Y-94283072D01*
X81316928Y-94160586D01*
X81176788Y-94058768D01*
X81022445Y-93980127D01*
X80857701Y-93926598D01*
X80857699Y-93926597D01*
X80857698Y-93926597D01*
X80726271Y-93905781D01*
X80686611Y-93899500D01*
X80513389Y-93899500D01*
X80473728Y-93905781D01*
X80342302Y-93926597D01*
X80177552Y-93980128D01*
X80023211Y-94058768D01*
X79990315Y-94082669D01*
X79883072Y-94160586D01*
X79883070Y-94160588D01*
X79883069Y-94160588D01*
X79760588Y-94283069D01*
X79760588Y-94283070D01*
X79760586Y-94283072D01*
X79753725Y-94292516D01*
X79658768Y-94423211D01*
X79580128Y-94577552D01*
X79526597Y-94742302D01*
X79503498Y-94888147D01*
X79499500Y-94913389D01*
X70600499Y-94913389D01*
X70600499Y-94352128D01*
X70594091Y-94292517D01*
X70590568Y-94283072D01*
X70543797Y-94157671D01*
X70543793Y-94157664D01*
X70457547Y-94042455D01*
X70457544Y-94042452D01*
X70342335Y-93956206D01*
X70342328Y-93956202D01*
X70207482Y-93905908D01*
X70207483Y-93905908D01*
X70147883Y-93899501D01*
X70147881Y-93899500D01*
X70147873Y-93899500D01*
X70147864Y-93899500D01*
X68852129Y-93899500D01*
X68852123Y-93899501D01*
X68792516Y-93905908D01*
X68657671Y-93956202D01*
X68657664Y-93956206D01*
X68542455Y-94042452D01*
X68542452Y-94042455D01*
X68456206Y-94157664D01*
X68456202Y-94157671D01*
X68405908Y-94292517D01*
X68399501Y-94352116D01*
X68399501Y-94352123D01*
X68399500Y-94352135D01*
X66775499Y-94352135D01*
X66775499Y-94277128D01*
X66769091Y-94217517D01*
X66768770Y-94216657D01*
X66718797Y-94082671D01*
X66718793Y-94082664D01*
X66632547Y-93967455D01*
X66632544Y-93967452D01*
X66517335Y-93881206D01*
X66517328Y-93881202D01*
X66382482Y-93830908D01*
X66382483Y-93830908D01*
X66322883Y-93824501D01*
X66322881Y-93824500D01*
X66322873Y-93824500D01*
X66322864Y-93824500D01*
X64877129Y-93824500D01*
X64877123Y-93824501D01*
X64817516Y-93830908D01*
X64682671Y-93881202D01*
X64682664Y-93881206D01*
X64567455Y-93967452D01*
X64567452Y-93967455D01*
X64481206Y-94082664D01*
X64481202Y-94082671D01*
X64430908Y-94217517D01*
X64424501Y-94277116D01*
X64424501Y-94277123D01*
X64424500Y-94277135D01*
X58560384Y-94277135D01*
X58556433Y-86352135D01*
X68399500Y-86352135D01*
X68399500Y-87647870D01*
X68399501Y-87647876D01*
X68405908Y-87707483D01*
X68456202Y-87842328D01*
X68456206Y-87842335D01*
X68542452Y-87957544D01*
X68542455Y-87957547D01*
X68657664Y-88043793D01*
X68657671Y-88043797D01*
X68792517Y-88094091D01*
X68792516Y-88094091D01*
X68799444Y-88094835D01*
X68852127Y-88100500D01*
X70147872Y-88100499D01*
X70207483Y-88094091D01*
X70342331Y-88043796D01*
X70457546Y-87957546D01*
X70543796Y-87842331D01*
X70594091Y-87707483D01*
X70600500Y-87647873D01*
X70600499Y-86913389D01*
X79499500Y-86913389D01*
X79499500Y-87086610D01*
X79525670Y-87251847D01*
X79526598Y-87257701D01*
X79580127Y-87422445D01*
X79658768Y-87576788D01*
X79760586Y-87716928D01*
X79883072Y-87839414D01*
X80023212Y-87941232D01*
X80177555Y-88019873D01*
X80342299Y-88073402D01*
X80513389Y-88100500D01*
X80513390Y-88100500D01*
X80686610Y-88100500D01*
X80686611Y-88100500D01*
X80857701Y-88073402D01*
X81022445Y-88019873D01*
X81176788Y-87941232D01*
X81316928Y-87839414D01*
X81439414Y-87716928D01*
X81541232Y-87576788D01*
X81619873Y-87422445D01*
X81673402Y-87257701D01*
X81700500Y-87086611D01*
X81700500Y-86913389D01*
X81695513Y-86881902D01*
X83099500Y-86881902D01*
X83099500Y-87118097D01*
X83136446Y-87351368D01*
X83209433Y-87575996D01*
X83298916Y-87751615D01*
X83316657Y-87786433D01*
X83455483Y-87977510D01*
X83622490Y-88144517D01*
X83813567Y-88283343D01*
X83912991Y-88334002D01*
X84024003Y-88390566D01*
X84024005Y-88390566D01*
X84024008Y-88390568D01*
X84086596Y-88410904D01*
X84248631Y-88463553D01*
X84481903Y-88500500D01*
X84481908Y-88500500D01*
X84718097Y-88500500D01*
X84951368Y-88463553D01*
X85001269Y-88447339D01*
X85175992Y-88390568D01*
X85386433Y-88283343D01*
X85577510Y-88144517D01*
X85744517Y-87977510D01*
X85883343Y-87786433D01*
X85990568Y-87575992D01*
X86063553Y-87351368D01*
X86074463Y-87282483D01*
X86100500Y-87118097D01*
X86100500Y-86881902D01*
X86063553Y-86648631D01*
X85997532Y-86445442D01*
X85990568Y-86424008D01*
X85990566Y-86424005D01*
X85990566Y-86424003D01*
X85966685Y-86377135D01*
X90524500Y-86377135D01*
X90524500Y-87622870D01*
X90524501Y-87622876D01*
X90530908Y-87682483D01*
X90581202Y-87817328D01*
X90581206Y-87817335D01*
X90667452Y-87932544D01*
X90667455Y-87932547D01*
X90782664Y-88018793D01*
X90782671Y-88018797D01*
X90917517Y-88069091D01*
X90917516Y-88069091D01*
X90924444Y-88069835D01*
X90977127Y-88075500D01*
X92222872Y-88075499D01*
X92282483Y-88069091D01*
X92417331Y-88018796D01*
X92532546Y-87932546D01*
X92618796Y-87817331D01*
X92626764Y-87795966D01*
X92668633Y-87740032D01*
X92734096Y-87715612D01*
X92802370Y-87730461D01*
X92830628Y-87751615D01*
X92899360Y-87820347D01*
X92899365Y-87820351D01*
X92929624Y-87842335D01*
X93036315Y-87919850D01*
X93132425Y-87968820D01*
X93187146Y-87996703D01*
X93187148Y-87996703D01*
X93187151Y-87996705D01*
X93273450Y-88024745D01*
X93348152Y-88049018D01*
X93515351Y-88075500D01*
X93515356Y-88075500D01*
X93684649Y-88075500D01*
X93851847Y-88049018D01*
X93852038Y-88048956D01*
X94012849Y-87996705D01*
X94163685Y-87919850D01*
X94300641Y-87820346D01*
X94420346Y-87700641D01*
X94519850Y-87563685D01*
X94596705Y-87412849D01*
X94649018Y-87251847D01*
X94675500Y-87084649D01*
X94675500Y-86915350D01*
X94649018Y-86748152D01*
X94596703Y-86587146D01*
X94524500Y-86445442D01*
X94519850Y-86436315D01*
X94507137Y-86418817D01*
X94420351Y-86299365D01*
X94420347Y-86299360D01*
X94300639Y-86179652D01*
X94300634Y-86179648D01*
X94163688Y-86080152D01*
X94163687Y-86080151D01*
X94163685Y-86080150D01*
X94089699Y-86042452D01*
X94012853Y-86003296D01*
X93851847Y-85950981D01*
X93684649Y-85924500D01*
X93684644Y-85924500D01*
X93515356Y-85924500D01*
X93515351Y-85924500D01*
X93348152Y-85950981D01*
X93187146Y-86003296D01*
X93036311Y-86080152D01*
X92899366Y-86179647D01*
X92830628Y-86248385D01*
X92769304Y-86281869D01*
X92699613Y-86276884D01*
X92643679Y-86235013D01*
X92626764Y-86204033D01*
X92618797Y-86182671D01*
X92618793Y-86182664D01*
X92532547Y-86067455D01*
X92532544Y-86067452D01*
X92417335Y-85981206D01*
X92417328Y-85981202D01*
X92282482Y-85930908D01*
X92282483Y-85930908D01*
X92222883Y-85924501D01*
X92222881Y-85924500D01*
X92222873Y-85924500D01*
X92222864Y-85924500D01*
X90977129Y-85924500D01*
X90977123Y-85924501D01*
X90917516Y-85930908D01*
X90782671Y-85981202D01*
X90782664Y-85981206D01*
X90667455Y-86067452D01*
X90667452Y-86067455D01*
X90581206Y-86182664D01*
X90581202Y-86182671D01*
X90530908Y-86317517D01*
X90524501Y-86377116D01*
X90524500Y-86377135D01*
X85966685Y-86377135D01*
X85923570Y-86292517D01*
X85883343Y-86213567D01*
X85744517Y-86022490D01*
X85577510Y-85855483D01*
X85469674Y-85777135D01*
X99924500Y-85777135D01*
X99924500Y-87222870D01*
X99924501Y-87222876D01*
X99930908Y-87282483D01*
X99981202Y-87417328D01*
X99981206Y-87417335D01*
X100067452Y-87532544D01*
X100067455Y-87532547D01*
X100152938Y-87596540D01*
X100194809Y-87652473D01*
X100199793Y-87722165D01*
X100178946Y-87768690D01*
X100095051Y-87884163D01*
X100011084Y-88048956D01*
X100011083Y-88048959D01*
X99953933Y-88224852D01*
X99925000Y-88407526D01*
X99925000Y-88592473D01*
X99953933Y-88775147D01*
X100011083Y-88951040D01*
X100011084Y-88951043D01*
X100095050Y-89115834D01*
X100110015Y-89136430D01*
X100700000Y-88546445D01*
X100700000Y-88552661D01*
X100727259Y-88654394D01*
X100779920Y-88745606D01*
X100854394Y-88820080D01*
X100945606Y-88872741D01*
X101047339Y-88900000D01*
X101053553Y-88900000D01*
X100463568Y-89489983D01*
X100463568Y-89489984D01*
X100484165Y-89504949D01*
X100648956Y-89588915D01*
X100648959Y-89588916D01*
X100824852Y-89646066D01*
X101007527Y-89675000D01*
X101192473Y-89675000D01*
X101375147Y-89646066D01*
X101551040Y-89588916D01*
X101551043Y-89588915D01*
X101715836Y-89504947D01*
X101715845Y-89504942D01*
X101736430Y-89489984D01*
X101736431Y-89489983D01*
X101146448Y-88900000D01*
X101152661Y-88900000D01*
X101254394Y-88872741D01*
X101345606Y-88820080D01*
X101420080Y-88745606D01*
X101472741Y-88654394D01*
X101500000Y-88552661D01*
X101500000Y-88546447D01*
X102089983Y-89136430D01*
X102089984Y-89136430D01*
X102104942Y-89115845D01*
X102104947Y-89115836D01*
X102188915Y-88951043D01*
X102188916Y-88951040D01*
X102246066Y-88775147D01*
X102275000Y-88592473D01*
X102275000Y-88407526D01*
X102246066Y-88224852D01*
X102188916Y-88048959D01*
X102188915Y-88048956D01*
X102104947Y-87884161D01*
X102021054Y-87768691D01*
X101997574Y-87702884D01*
X102013400Y-87634831D01*
X102047058Y-87596542D01*
X102132546Y-87532546D01*
X102218796Y-87417331D01*
X102269091Y-87282483D01*
X102275500Y-87222873D01*
X102275499Y-85777128D01*
X102269091Y-85717517D01*
X102268770Y-85716657D01*
X102218797Y-85582671D01*
X102218793Y-85582664D01*
X102132547Y-85467455D01*
X102132544Y-85467452D01*
X102017335Y-85381206D01*
X102017328Y-85381202D01*
X101882482Y-85330908D01*
X101882483Y-85330908D01*
X101822883Y-85324501D01*
X101822881Y-85324500D01*
X101822873Y-85324500D01*
X101822864Y-85324500D01*
X100377129Y-85324500D01*
X100377123Y-85324501D01*
X100317516Y-85330908D01*
X100182671Y-85381202D01*
X100182664Y-85381206D01*
X100067455Y-85467452D01*
X100067452Y-85467455D01*
X99981206Y-85582664D01*
X99981202Y-85582671D01*
X99930908Y-85717517D01*
X99924501Y-85777116D01*
X99924501Y-85777123D01*
X99924500Y-85777135D01*
X85469674Y-85777135D01*
X85386433Y-85716657D01*
X85175996Y-85609433D01*
X84951368Y-85536446D01*
X84718097Y-85499500D01*
X84718092Y-85499500D01*
X84481908Y-85499500D01*
X84481903Y-85499500D01*
X84248631Y-85536446D01*
X84024003Y-85609433D01*
X83813566Y-85716657D01*
X83730326Y-85777135D01*
X83622490Y-85855483D01*
X83622488Y-85855485D01*
X83622487Y-85855485D01*
X83455485Y-86022487D01*
X83455485Y-86022488D01*
X83455483Y-86022490D01*
X83413589Y-86080152D01*
X83316657Y-86213566D01*
X83209433Y-86424003D01*
X83136446Y-86648631D01*
X83099500Y-86881902D01*
X81695513Y-86881902D01*
X81684595Y-86812969D01*
X81673403Y-86742303D01*
X81673402Y-86742302D01*
X81673402Y-86742299D01*
X81619873Y-86577555D01*
X81541232Y-86423212D01*
X81439414Y-86283072D01*
X81316928Y-86160586D01*
X81176788Y-86058768D01*
X81022445Y-85980127D01*
X80857701Y-85926598D01*
X80857699Y-85926597D01*
X80857698Y-85926597D01*
X80726271Y-85905781D01*
X80686611Y-85899500D01*
X80513389Y-85899500D01*
X80473728Y-85905781D01*
X80342302Y-85926597D01*
X80177552Y-85980128D01*
X80023211Y-86058768D01*
X79943256Y-86116859D01*
X79883072Y-86160586D01*
X79883070Y-86160588D01*
X79883069Y-86160588D01*
X79760588Y-86283069D01*
X79760588Y-86283070D01*
X79760586Y-86283072D01*
X79735560Y-86317517D01*
X79658768Y-86423211D01*
X79580128Y-86577552D01*
X79580127Y-86577554D01*
X79580127Y-86577555D01*
X79553362Y-86659927D01*
X79526597Y-86742302D01*
X79499500Y-86913389D01*
X70600499Y-86913389D01*
X70600499Y-86352128D01*
X70594827Y-86299360D01*
X70594091Y-86292516D01*
X70543797Y-86157671D01*
X70543793Y-86157664D01*
X70457547Y-86042455D01*
X70457544Y-86042452D01*
X70342335Y-85956206D01*
X70342328Y-85956202D01*
X70207482Y-85905908D01*
X70207483Y-85905908D01*
X70147883Y-85899501D01*
X70147881Y-85899500D01*
X70147873Y-85899500D01*
X70147864Y-85899500D01*
X68852129Y-85899500D01*
X68852123Y-85899501D01*
X68792516Y-85905908D01*
X68657671Y-85956202D01*
X68657664Y-85956206D01*
X68542455Y-86042452D01*
X68542452Y-86042455D01*
X68456206Y-86157664D01*
X68456202Y-86157671D01*
X68405908Y-86292517D01*
X68399501Y-86352116D01*
X68399501Y-86352123D01*
X68399500Y-86352135D01*
X58556433Y-86352135D01*
X58553404Y-80277135D01*
X64424500Y-80277135D01*
X64424500Y-81722870D01*
X64424501Y-81722876D01*
X64430908Y-81782483D01*
X64481202Y-81917328D01*
X64481206Y-81917335D01*
X64567452Y-82032544D01*
X64567455Y-82032547D01*
X64652938Y-82096540D01*
X64694809Y-82152473D01*
X64699793Y-82222165D01*
X64678946Y-82268690D01*
X64595051Y-82384163D01*
X64511084Y-82548956D01*
X64511083Y-82548959D01*
X64453933Y-82724852D01*
X64425000Y-82907526D01*
X64425000Y-83092473D01*
X64453933Y-83275147D01*
X64511083Y-83451040D01*
X64511084Y-83451043D01*
X64595050Y-83615834D01*
X64610015Y-83636430D01*
X65200000Y-83046445D01*
X65200000Y-83052661D01*
X65227259Y-83154394D01*
X65279920Y-83245606D01*
X65354394Y-83320080D01*
X65445606Y-83372741D01*
X65547339Y-83400000D01*
X65553553Y-83400000D01*
X64963568Y-83989983D01*
X64963568Y-83989984D01*
X64984165Y-84004949D01*
X65148956Y-84088915D01*
X65148959Y-84088916D01*
X65324852Y-84146066D01*
X65507527Y-84175000D01*
X65692473Y-84175000D01*
X65875147Y-84146066D01*
X66051040Y-84088916D01*
X66051043Y-84088915D01*
X66215836Y-84004947D01*
X66215845Y-84004942D01*
X66236430Y-83989984D01*
X66236431Y-83989983D01*
X65646448Y-83400000D01*
X65652661Y-83400000D01*
X65754394Y-83372741D01*
X65845606Y-83320080D01*
X65920080Y-83245606D01*
X65972741Y-83154394D01*
X66000000Y-83052661D01*
X66000000Y-83046447D01*
X66589983Y-83636430D01*
X66589984Y-83636430D01*
X66604942Y-83615845D01*
X66604947Y-83615836D01*
X66688915Y-83451043D01*
X66688916Y-83451040D01*
X66721052Y-83352135D01*
X68399500Y-83352135D01*
X68399500Y-84647870D01*
X68399501Y-84647876D01*
X68405908Y-84707483D01*
X68456202Y-84842328D01*
X68456206Y-84842335D01*
X68542452Y-84957544D01*
X68542455Y-84957547D01*
X68657664Y-85043793D01*
X68657671Y-85043797D01*
X68792517Y-85094091D01*
X68792516Y-85094091D01*
X68799444Y-85094835D01*
X68852127Y-85100500D01*
X70147872Y-85100499D01*
X70207483Y-85094091D01*
X70342331Y-85043796D01*
X70457546Y-84957546D01*
X70543796Y-84842331D01*
X70594091Y-84707483D01*
X70600500Y-84647873D01*
X70600499Y-83913389D01*
X79499500Y-83913389D01*
X79499500Y-84086611D01*
X79526598Y-84257701D01*
X79580127Y-84422445D01*
X79658768Y-84576788D01*
X79760586Y-84716928D01*
X79883072Y-84839414D01*
X80023212Y-84941232D01*
X80177555Y-85019873D01*
X80342299Y-85073402D01*
X80513389Y-85100500D01*
X80513390Y-85100500D01*
X80686610Y-85100500D01*
X80686611Y-85100500D01*
X80857701Y-85073402D01*
X81022445Y-85019873D01*
X81176788Y-84941232D01*
X81316928Y-84839414D01*
X81439414Y-84716928D01*
X81541232Y-84576788D01*
X81619873Y-84422445D01*
X81673402Y-84257701D01*
X81700500Y-84086611D01*
X81700500Y-83913389D01*
X81673402Y-83742299D01*
X81619873Y-83577555D01*
X81541232Y-83423212D01*
X81439414Y-83283072D01*
X81316928Y-83160586D01*
X81176788Y-83058768D01*
X81022445Y-82980127D01*
X80857701Y-82926598D01*
X80857699Y-82926597D01*
X80857698Y-82926597D01*
X80726271Y-82905781D01*
X80686611Y-82899500D01*
X80513389Y-82899500D01*
X80473728Y-82905781D01*
X80342302Y-82926597D01*
X80177552Y-82980128D01*
X80023211Y-83058768D01*
X79976821Y-83092473D01*
X79883072Y-83160586D01*
X79883070Y-83160588D01*
X79883069Y-83160588D01*
X79760588Y-83283069D01*
X79760588Y-83283070D01*
X79760586Y-83283072D01*
X79753725Y-83292516D01*
X79658768Y-83423211D01*
X79580128Y-83577552D01*
X79526597Y-83742302D01*
X79499500Y-83913389D01*
X70600499Y-83913389D01*
X70600499Y-83352128D01*
X70594091Y-83292517D01*
X70590568Y-83283072D01*
X70543797Y-83157671D01*
X70543793Y-83157664D01*
X70457547Y-83042455D01*
X70457544Y-83042452D01*
X70342335Y-82956206D01*
X70342328Y-82956202D01*
X70207482Y-82905908D01*
X70207483Y-82905908D01*
X70147883Y-82899501D01*
X70147881Y-82899500D01*
X70147873Y-82899500D01*
X70147864Y-82899500D01*
X68852129Y-82899500D01*
X68852123Y-82899501D01*
X68792516Y-82905908D01*
X68657671Y-82956202D01*
X68657664Y-82956206D01*
X68542455Y-83042452D01*
X68542452Y-83042455D01*
X68456206Y-83157664D01*
X68456202Y-83157671D01*
X68405908Y-83292517D01*
X68399501Y-83352116D01*
X68399501Y-83352123D01*
X68399500Y-83352135D01*
X66721052Y-83352135D01*
X66734584Y-83310488D01*
X66746066Y-83275147D01*
X66775000Y-83092473D01*
X66775000Y-82907526D01*
X66746066Y-82724852D01*
X66688916Y-82548959D01*
X66688915Y-82548956D01*
X66604947Y-82384161D01*
X66521054Y-82268691D01*
X66497574Y-82202884D01*
X66513400Y-82134831D01*
X66547058Y-82096542D01*
X66632546Y-82032546D01*
X66718796Y-81917331D01*
X66769091Y-81782483D01*
X66775500Y-81722873D01*
X66775499Y-80352135D01*
X68399500Y-80352135D01*
X68399500Y-81647870D01*
X68399501Y-81647876D01*
X68405908Y-81707483D01*
X68456202Y-81842328D01*
X68456206Y-81842335D01*
X68542452Y-81957544D01*
X68542455Y-81957547D01*
X68657664Y-82043793D01*
X68657671Y-82043797D01*
X68792517Y-82094091D01*
X68792516Y-82094091D01*
X68799444Y-82094835D01*
X68852127Y-82100500D01*
X70147872Y-82100499D01*
X70207483Y-82094091D01*
X70342331Y-82043796D01*
X70457546Y-81957546D01*
X70543796Y-81842331D01*
X70594091Y-81707483D01*
X70600500Y-81647873D01*
X70600499Y-80913389D01*
X79499500Y-80913389D01*
X79499500Y-81086610D01*
X79519266Y-81211412D01*
X79526598Y-81257701D01*
X79580127Y-81422445D01*
X79658768Y-81576788D01*
X79760586Y-81716928D01*
X79883072Y-81839414D01*
X80023212Y-81941232D01*
X80177555Y-82019873D01*
X80342299Y-82073402D01*
X80513389Y-82100500D01*
X80513390Y-82100500D01*
X80686610Y-82100500D01*
X80686611Y-82100500D01*
X80857701Y-82073402D01*
X81022445Y-82019873D01*
X81176788Y-81941232D01*
X81316928Y-81839414D01*
X81439414Y-81716928D01*
X81541232Y-81576788D01*
X81619873Y-81422445D01*
X81673402Y-81257701D01*
X81680734Y-81211412D01*
X81696944Y-81109060D01*
X84799500Y-81109060D01*
X84799500Y-81313763D01*
X84831522Y-81515946D01*
X84894781Y-81710635D01*
X84931390Y-81782482D01*
X84987585Y-81892771D01*
X84987715Y-81893025D01*
X85108028Y-82058625D01*
X85252786Y-82203383D01*
X85362844Y-82283343D01*
X85418390Y-82323699D01*
X85534607Y-82382915D01*
X85600776Y-82416630D01*
X85600778Y-82416630D01*
X85600781Y-82416632D01*
X85705137Y-82450539D01*
X85795465Y-82479889D01*
X85896557Y-82495900D01*
X85997648Y-82511912D01*
X85997649Y-82511912D01*
X86202351Y-82511912D01*
X86202352Y-82511912D01*
X86404534Y-82479889D01*
X86599219Y-82416632D01*
X86781610Y-82323699D01*
X86921361Y-82222165D01*
X86947213Y-82203383D01*
X86947215Y-82203380D01*
X86947219Y-82203378D01*
X87091966Y-82058631D01*
X87091968Y-82058627D01*
X87091971Y-82058625D01*
X87165409Y-81957544D01*
X87212287Y-81893022D01*
X87305220Y-81710631D01*
X87368477Y-81515946D01*
X87400500Y-81313764D01*
X87400500Y-81109094D01*
X94960000Y-81109094D01*
X94960000Y-81313729D01*
X94992009Y-81515829D01*
X95055244Y-81710443D01*
X95148141Y-81892762D01*
X95148147Y-81892771D01*
X95180523Y-81937333D01*
X95180524Y-81937334D01*
X95860000Y-81257858D01*
X95860000Y-81264073D01*
X95887259Y-81365806D01*
X95939920Y-81457018D01*
X96014394Y-81531492D01*
X96105606Y-81584153D01*
X96207339Y-81611412D01*
X96213553Y-81611412D01*
X95534076Y-82290886D01*
X95578650Y-82323271D01*
X95760968Y-82416167D01*
X95955582Y-82479402D01*
X96157683Y-82511412D01*
X96362317Y-82511412D01*
X96564417Y-82479402D01*
X96759031Y-82416167D01*
X96941349Y-82323271D01*
X96985921Y-82290886D01*
X96306447Y-81611412D01*
X96312661Y-81611412D01*
X96414394Y-81584153D01*
X96505606Y-81531492D01*
X96580080Y-81457018D01*
X96632741Y-81365806D01*
X96660000Y-81264073D01*
X96660000Y-81257859D01*
X97339474Y-81937333D01*
X97371859Y-81892761D01*
X97464755Y-81710443D01*
X97527990Y-81515829D01*
X97560000Y-81313729D01*
X97560000Y-81109094D01*
X97527990Y-80906998D01*
X97527988Y-80906990D01*
X97519836Y-80881902D01*
X99599500Y-80881902D01*
X99599500Y-81118097D01*
X99636446Y-81351368D01*
X99709433Y-81575996D01*
X99814644Y-81782482D01*
X99816657Y-81786433D01*
X99955483Y-81977510D01*
X100122490Y-82144517D01*
X100313567Y-82283343D01*
X100391930Y-82323271D01*
X100524003Y-82390566D01*
X100524005Y-82390566D01*
X100524008Y-82390568D01*
X100644412Y-82429689D01*
X100748631Y-82463553D01*
X100981903Y-82500500D01*
X100981908Y-82500500D01*
X101218097Y-82500500D01*
X101451368Y-82463553D01*
X101675992Y-82390568D01*
X101886433Y-82283343D01*
X102077510Y-82144517D01*
X102244517Y-81977510D01*
X102383343Y-81786433D01*
X102490568Y-81575992D01*
X102563553Y-81351368D01*
X102569509Y-81313763D01*
X102600500Y-81118097D01*
X102600500Y-80881902D01*
X102563553Y-80648631D01*
X102490566Y-80424003D01*
X102423570Y-80292517D01*
X102383343Y-80213567D01*
X102244517Y-80022490D01*
X102077510Y-79855483D01*
X101886433Y-79716657D01*
X101675996Y-79609433D01*
X101451368Y-79536446D01*
X101218097Y-79499500D01*
X101218092Y-79499500D01*
X100981908Y-79499500D01*
X100981903Y-79499500D01*
X100748631Y-79536446D01*
X100524003Y-79609433D01*
X100313566Y-79716657D01*
X100204550Y-79795862D01*
X100122490Y-79855483D01*
X100122488Y-79855485D01*
X100122487Y-79855485D01*
X99955485Y-80022487D01*
X99955485Y-80022488D01*
X99955483Y-80022490D01*
X99911764Y-80082664D01*
X99816657Y-80213566D01*
X99709433Y-80424003D01*
X99636446Y-80648631D01*
X99599500Y-80881902D01*
X97519836Y-80881902D01*
X97464755Y-80712380D01*
X97371859Y-80530062D01*
X97339474Y-80485489D01*
X97339474Y-80485488D01*
X96660000Y-81164963D01*
X96660000Y-81158751D01*
X96632741Y-81057018D01*
X96580080Y-80965806D01*
X96505606Y-80891332D01*
X96414394Y-80838671D01*
X96312661Y-80811412D01*
X96306446Y-80811412D01*
X96985922Y-80131936D01*
X96985921Y-80131935D01*
X96941359Y-80099559D01*
X96941350Y-80099553D01*
X96759031Y-80006656D01*
X96564417Y-79943421D01*
X96362317Y-79911412D01*
X96157683Y-79911412D01*
X95955582Y-79943421D01*
X95760968Y-80006656D01*
X95578644Y-80099555D01*
X95534077Y-80131935D01*
X95534077Y-80131936D01*
X96213554Y-80811412D01*
X96207339Y-80811412D01*
X96105606Y-80838671D01*
X96014394Y-80891332D01*
X95939920Y-80965806D01*
X95887259Y-81057018D01*
X95860000Y-81158751D01*
X95860000Y-81164965D01*
X95180524Y-80485489D01*
X95180523Y-80485489D01*
X95148143Y-80530056D01*
X95055244Y-80712380D01*
X94992009Y-80906994D01*
X94960000Y-81109094D01*
X87400500Y-81109094D01*
X87400500Y-81109060D01*
X87392257Y-81057018D01*
X87368477Y-80906877D01*
X87315002Y-80742299D01*
X87305220Y-80712193D01*
X87305218Y-80712190D01*
X87305218Y-80712188D01*
X87236618Y-80577555D01*
X87212287Y-80529802D01*
X87180092Y-80485489D01*
X87091971Y-80364198D01*
X86947213Y-80219440D01*
X86781613Y-80099127D01*
X86781612Y-80099126D01*
X86781610Y-80099125D01*
X86702405Y-80058768D01*
X86599223Y-80006193D01*
X86404534Y-79942934D01*
X86229995Y-79915290D01*
X86202352Y-79910912D01*
X85997648Y-79910912D01*
X85973329Y-79914763D01*
X85795465Y-79942934D01*
X85600776Y-80006193D01*
X85418386Y-80099127D01*
X85252786Y-80219440D01*
X85108028Y-80364198D01*
X84987715Y-80529798D01*
X84894781Y-80712188D01*
X84831522Y-80906877D01*
X84799500Y-81109060D01*
X81696944Y-81109060D01*
X81700500Y-81086609D01*
X81700500Y-80913389D01*
X81699469Y-80906877D01*
X81673402Y-80742299D01*
X81619873Y-80577555D01*
X81541232Y-80423212D01*
X81439414Y-80283072D01*
X81316928Y-80160586D01*
X81176788Y-80058768D01*
X81022445Y-79980127D01*
X80857701Y-79926598D01*
X80857699Y-79926597D01*
X80857698Y-79926597D01*
X80726271Y-79905781D01*
X80686611Y-79899500D01*
X80513389Y-79899500D01*
X80473728Y-79905781D01*
X80342302Y-79926597D01*
X80177552Y-79980128D01*
X80023211Y-80058768D01*
X79967068Y-80099559D01*
X79883072Y-80160586D01*
X79883070Y-80160588D01*
X79883069Y-80160588D01*
X79760588Y-80283069D01*
X79760588Y-80283070D01*
X79760586Y-80283072D01*
X79753725Y-80292516D01*
X79658768Y-80423211D01*
X79580128Y-80577552D01*
X79580127Y-80577554D01*
X79580127Y-80577555D01*
X79553362Y-80659927D01*
X79526597Y-80742302D01*
X79499500Y-80913389D01*
X70600499Y-80913389D01*
X70600499Y-80352128D01*
X70594091Y-80292517D01*
X70590568Y-80283072D01*
X70543797Y-80157671D01*
X70543793Y-80157664D01*
X70457547Y-80042455D01*
X70457544Y-80042452D01*
X70342335Y-79956206D01*
X70342328Y-79956202D01*
X70207482Y-79905908D01*
X70207483Y-79905908D01*
X70147883Y-79899501D01*
X70147881Y-79899500D01*
X70147873Y-79899500D01*
X70147864Y-79899500D01*
X68852129Y-79899500D01*
X68852123Y-79899501D01*
X68792516Y-79905908D01*
X68657671Y-79956202D01*
X68657664Y-79956206D01*
X68542455Y-80042452D01*
X68542452Y-80042455D01*
X68456206Y-80157664D01*
X68456202Y-80157671D01*
X68405908Y-80292517D01*
X68399501Y-80352116D01*
X68399501Y-80352123D01*
X68399500Y-80352135D01*
X66775499Y-80352135D01*
X66775499Y-80277128D01*
X66769091Y-80217517D01*
X66767617Y-80213566D01*
X66718797Y-80082671D01*
X66718793Y-80082664D01*
X66632547Y-79967455D01*
X66632544Y-79967452D01*
X66517335Y-79881206D01*
X66517328Y-79881202D01*
X66382482Y-79830908D01*
X66382483Y-79830908D01*
X66322883Y-79824501D01*
X66322881Y-79824500D01*
X66322873Y-79824500D01*
X66322864Y-79824500D01*
X64877129Y-79824500D01*
X64877123Y-79824501D01*
X64817516Y-79830908D01*
X64682671Y-79881202D01*
X64682664Y-79881206D01*
X64567455Y-79967452D01*
X64567452Y-79967455D01*
X64481206Y-80082664D01*
X64481202Y-80082671D01*
X64430908Y-80217517D01*
X64424501Y-80277116D01*
X64424501Y-80277123D01*
X64424500Y-80277135D01*
X58553404Y-80277135D01*
X58549453Y-72352135D01*
X68399500Y-72352135D01*
X68399500Y-73647870D01*
X68399501Y-73647876D01*
X68405908Y-73707483D01*
X68456202Y-73842328D01*
X68456206Y-73842335D01*
X68542452Y-73957544D01*
X68542455Y-73957547D01*
X68657664Y-74043793D01*
X68657671Y-74043797D01*
X68792517Y-74094091D01*
X68792516Y-74094091D01*
X68799444Y-74094835D01*
X68852127Y-74100500D01*
X70147872Y-74100499D01*
X70207483Y-74094091D01*
X70342331Y-74043796D01*
X70457546Y-73957546D01*
X70543796Y-73842331D01*
X70594091Y-73707483D01*
X70600500Y-73647873D01*
X70600499Y-72913389D01*
X79499500Y-72913389D01*
X79499500Y-73086611D01*
X79501073Y-73096540D01*
X79523799Y-73240032D01*
X79526598Y-73257701D01*
X79580127Y-73422445D01*
X79658768Y-73576788D01*
X79760586Y-73716928D01*
X79883072Y-73839414D01*
X80023212Y-73941232D01*
X80177555Y-74019873D01*
X80342299Y-74073402D01*
X80513389Y-74100500D01*
X80513390Y-74100500D01*
X80686610Y-74100500D01*
X80686611Y-74100500D01*
X80857701Y-74073402D01*
X81022445Y-74019873D01*
X81176788Y-73941232D01*
X81316928Y-73839414D01*
X81439414Y-73716928D01*
X81541232Y-73576788D01*
X81619873Y-73422445D01*
X81673402Y-73257701D01*
X81700500Y-73086611D01*
X81700500Y-72913389D01*
X81673402Y-72742299D01*
X81619873Y-72577555D01*
X81619870Y-72577549D01*
X81546388Y-72433330D01*
X81541233Y-72423214D01*
X81535524Y-72415356D01*
X81511218Y-72381902D01*
X83099500Y-72381902D01*
X83099500Y-72618097D01*
X83136446Y-72851368D01*
X83209433Y-73075996D01*
X83298916Y-73251615D01*
X83316657Y-73286433D01*
X83455483Y-73477510D01*
X83622490Y-73644517D01*
X83813567Y-73783343D01*
X83912991Y-73834002D01*
X84024003Y-73890566D01*
X84024005Y-73890566D01*
X84024008Y-73890568D01*
X84086596Y-73910904D01*
X84248631Y-73963553D01*
X84481903Y-74000500D01*
X84481908Y-74000500D01*
X84718097Y-74000500D01*
X84951368Y-73963553D01*
X85175992Y-73890568D01*
X85386433Y-73783343D01*
X85577510Y-73644517D01*
X85744517Y-73477510D01*
X85883343Y-73286433D01*
X85990568Y-73075992D01*
X86063553Y-72851368D01*
X86074463Y-72782483D01*
X86100500Y-72618097D01*
X86100500Y-72381902D01*
X86063553Y-72148631D01*
X86029053Y-72042452D01*
X85990568Y-71924008D01*
X85990566Y-71924005D01*
X85990566Y-71924003D01*
X85966685Y-71877135D01*
X90024500Y-71877135D01*
X90024500Y-73122870D01*
X90024501Y-73122876D01*
X90030908Y-73182483D01*
X90081202Y-73317328D01*
X90081206Y-73317335D01*
X90167452Y-73432544D01*
X90167455Y-73432547D01*
X90282664Y-73518793D01*
X90282671Y-73518797D01*
X90417517Y-73569091D01*
X90417516Y-73569091D01*
X90424444Y-73569835D01*
X90477127Y-73575500D01*
X91722872Y-73575499D01*
X91782483Y-73569091D01*
X91917331Y-73518796D01*
X92032546Y-73432546D01*
X92118796Y-73317331D01*
X92126764Y-73295966D01*
X92168633Y-73240032D01*
X92234096Y-73215612D01*
X92302370Y-73230461D01*
X92330628Y-73251615D01*
X92399360Y-73320347D01*
X92399365Y-73320351D01*
X92487193Y-73384161D01*
X92536315Y-73419850D01*
X92632425Y-73468820D01*
X92687146Y-73496703D01*
X92687148Y-73496703D01*
X92687151Y-73496705D01*
X92755131Y-73518793D01*
X92848152Y-73549018D01*
X93015351Y-73575500D01*
X93015356Y-73575500D01*
X93184649Y-73575500D01*
X93351847Y-73549018D01*
X93352038Y-73548956D01*
X93512849Y-73496705D01*
X93663685Y-73419850D01*
X93800641Y-73320346D01*
X93920346Y-73200641D01*
X94019850Y-73063685D01*
X94096705Y-72912849D01*
X94149018Y-72751847D01*
X94150530Y-72742299D01*
X94175500Y-72584649D01*
X94175500Y-72415350D01*
X94149018Y-72248152D01*
X94096703Y-72087146D01*
X94068820Y-72032425D01*
X94019850Y-71936315D01*
X93993103Y-71899501D01*
X93920351Y-71799365D01*
X93920347Y-71799360D01*
X93800639Y-71679652D01*
X93800634Y-71679648D01*
X93663688Y-71580152D01*
X93663687Y-71580151D01*
X93663685Y-71580150D01*
X93616582Y-71556150D01*
X93512853Y-71503296D01*
X93351847Y-71450981D01*
X93184649Y-71424500D01*
X93184644Y-71424500D01*
X93015356Y-71424500D01*
X93015351Y-71424500D01*
X92848152Y-71450981D01*
X92687146Y-71503296D01*
X92536311Y-71580152D01*
X92399366Y-71679647D01*
X92330628Y-71748385D01*
X92269304Y-71781869D01*
X92199613Y-71776884D01*
X92143679Y-71735013D01*
X92126764Y-71704033D01*
X92118797Y-71682671D01*
X92118793Y-71682664D01*
X92032547Y-71567455D01*
X92032544Y-71567452D01*
X91917335Y-71481206D01*
X91917328Y-71481202D01*
X91782482Y-71430908D01*
X91782483Y-71430908D01*
X91722883Y-71424501D01*
X91722881Y-71424500D01*
X91722873Y-71424500D01*
X91722864Y-71424500D01*
X90477129Y-71424500D01*
X90477123Y-71424501D01*
X90417516Y-71430908D01*
X90282671Y-71481202D01*
X90282664Y-71481206D01*
X90167455Y-71567452D01*
X90167452Y-71567455D01*
X90081206Y-71682664D01*
X90081202Y-71682671D01*
X90030908Y-71817517D01*
X90024501Y-71877116D01*
X90024500Y-71877135D01*
X85966685Y-71877135D01*
X85927056Y-71799359D01*
X85883343Y-71713567D01*
X85744517Y-71522490D01*
X85577510Y-71355483D01*
X85469674Y-71277135D01*
X99824500Y-71277135D01*
X99824500Y-72722870D01*
X99824501Y-72722876D01*
X99830908Y-72782483D01*
X99881202Y-72917328D01*
X99881206Y-72917335D01*
X99967452Y-73032544D01*
X99967455Y-73032547D01*
X100052938Y-73096540D01*
X100094809Y-73152473D01*
X100099793Y-73222165D01*
X100078946Y-73268690D01*
X99995051Y-73384163D01*
X99911084Y-73548956D01*
X99911083Y-73548959D01*
X99853933Y-73724852D01*
X99825000Y-73907526D01*
X99825000Y-74092473D01*
X99853933Y-74275147D01*
X99911083Y-74451040D01*
X99911084Y-74451043D01*
X99995050Y-74615834D01*
X100010015Y-74636430D01*
X100600000Y-74046445D01*
X100600000Y-74052661D01*
X100627259Y-74154394D01*
X100679920Y-74245606D01*
X100754394Y-74320080D01*
X100845606Y-74372741D01*
X100947339Y-74400000D01*
X100953553Y-74400000D01*
X100363568Y-74989983D01*
X100363568Y-74989984D01*
X100384165Y-75004949D01*
X100548956Y-75088915D01*
X100548959Y-75088916D01*
X100724852Y-75146066D01*
X100907527Y-75175000D01*
X101092473Y-75175000D01*
X101275147Y-75146066D01*
X101451040Y-75088916D01*
X101451043Y-75088915D01*
X101615836Y-75004947D01*
X101615845Y-75004942D01*
X101636430Y-74989984D01*
X101636431Y-74989983D01*
X101046448Y-74400000D01*
X101052661Y-74400000D01*
X101154394Y-74372741D01*
X101245606Y-74320080D01*
X101320080Y-74245606D01*
X101372741Y-74154394D01*
X101400000Y-74052661D01*
X101400000Y-74046447D01*
X101989983Y-74636430D01*
X101989984Y-74636430D01*
X102004942Y-74615845D01*
X102004947Y-74615836D01*
X102088915Y-74451043D01*
X102088916Y-74451040D01*
X102146066Y-74275147D01*
X102175000Y-74092473D01*
X102175000Y-73907526D01*
X102146066Y-73724852D01*
X102088916Y-73548959D01*
X102088915Y-73548956D01*
X102004947Y-73384161D01*
X101921054Y-73268691D01*
X101897574Y-73202884D01*
X101913400Y-73134831D01*
X101947058Y-73096542D01*
X102032546Y-73032546D01*
X102118796Y-72917331D01*
X102169091Y-72782483D01*
X102175500Y-72722873D01*
X102175499Y-71277128D01*
X102169091Y-71217517D01*
X102168770Y-71216657D01*
X102118797Y-71082671D01*
X102118793Y-71082664D01*
X102032547Y-70967455D01*
X102032544Y-70967452D01*
X101917335Y-70881206D01*
X101917328Y-70881202D01*
X101782482Y-70830908D01*
X101782483Y-70830908D01*
X101722883Y-70824501D01*
X101722881Y-70824500D01*
X101722873Y-70824500D01*
X101722864Y-70824500D01*
X100277129Y-70824500D01*
X100277123Y-70824501D01*
X100217516Y-70830908D01*
X100082671Y-70881202D01*
X100082664Y-70881206D01*
X99967455Y-70967452D01*
X99967452Y-70967455D01*
X99881206Y-71082664D01*
X99881202Y-71082671D01*
X99830908Y-71217517D01*
X99824501Y-71277116D01*
X99824501Y-71277123D01*
X99824500Y-71277135D01*
X85469674Y-71277135D01*
X85386433Y-71216657D01*
X85175996Y-71109433D01*
X84951368Y-71036446D01*
X84718097Y-70999500D01*
X84718092Y-70999500D01*
X84481908Y-70999500D01*
X84481903Y-70999500D01*
X84248631Y-71036446D01*
X84024003Y-71109433D01*
X83813566Y-71216657D01*
X83730326Y-71277135D01*
X83622490Y-71355483D01*
X83622488Y-71355485D01*
X83622487Y-71355485D01*
X83455485Y-71522487D01*
X83455485Y-71522488D01*
X83455483Y-71522490D01*
X83413589Y-71580152D01*
X83316657Y-71713566D01*
X83209433Y-71924003D01*
X83136446Y-72148631D01*
X83099500Y-72381902D01*
X81511218Y-72381902D01*
X81439414Y-72283072D01*
X81316928Y-72160586D01*
X81176788Y-72058768D01*
X81022445Y-71980127D01*
X80857701Y-71926598D01*
X80857699Y-71926597D01*
X80857698Y-71926597D01*
X80726271Y-71905781D01*
X80686611Y-71899500D01*
X80513389Y-71899500D01*
X80473728Y-71905781D01*
X80342302Y-71926597D01*
X80177552Y-71980128D01*
X80023211Y-72058768D01*
X79984153Y-72087146D01*
X79883072Y-72160586D01*
X79883070Y-72160588D01*
X79883069Y-72160588D01*
X79760588Y-72283069D01*
X79760588Y-72283070D01*
X79760586Y-72283072D01*
X79753725Y-72292516D01*
X79658768Y-72423211D01*
X79580128Y-72577552D01*
X79526597Y-72742302D01*
X79520233Y-72782483D01*
X79499500Y-72913389D01*
X70600499Y-72913389D01*
X70600499Y-72352128D01*
X70594091Y-72292517D01*
X70590568Y-72283072D01*
X70543797Y-72157671D01*
X70543793Y-72157664D01*
X70457547Y-72042455D01*
X70457544Y-72042452D01*
X70342335Y-71956206D01*
X70342328Y-71956202D01*
X70207482Y-71905908D01*
X70207483Y-71905908D01*
X70147883Y-71899501D01*
X70147881Y-71899500D01*
X70147873Y-71899500D01*
X70147864Y-71899500D01*
X68852129Y-71899500D01*
X68852123Y-71899501D01*
X68792516Y-71905908D01*
X68657671Y-71956202D01*
X68657664Y-71956206D01*
X68542455Y-72042452D01*
X68542452Y-72042455D01*
X68456206Y-72157664D01*
X68456202Y-72157671D01*
X68405908Y-72292517D01*
X68399501Y-72352116D01*
X68399501Y-72352123D01*
X68399500Y-72352135D01*
X58549453Y-72352135D01*
X58547282Y-67999031D01*
X58546175Y-65777135D01*
X64424500Y-65777135D01*
X64424500Y-67222870D01*
X64424501Y-67222876D01*
X64430908Y-67282483D01*
X64481202Y-67417328D01*
X64481206Y-67417335D01*
X64567452Y-67532544D01*
X64567455Y-67532547D01*
X64652938Y-67596540D01*
X64694809Y-67652473D01*
X64699793Y-67722165D01*
X64678946Y-67768690D01*
X64595051Y-67884163D01*
X64511084Y-68048956D01*
X64511083Y-68048959D01*
X64453933Y-68224852D01*
X64425000Y-68407526D01*
X64425000Y-68592473D01*
X64453933Y-68775147D01*
X64511083Y-68951040D01*
X64511084Y-68951043D01*
X64595050Y-69115834D01*
X64610015Y-69136430D01*
X65200000Y-68546445D01*
X65200000Y-68552661D01*
X65227259Y-68654394D01*
X65279920Y-68745606D01*
X65354394Y-68820080D01*
X65445606Y-68872741D01*
X65547339Y-68900000D01*
X65553553Y-68900000D01*
X64963568Y-69489983D01*
X64963568Y-69489984D01*
X64984165Y-69504949D01*
X65148956Y-69588915D01*
X65148959Y-69588916D01*
X65324852Y-69646066D01*
X65507527Y-69675000D01*
X65692473Y-69675000D01*
X65875147Y-69646066D01*
X66051040Y-69588916D01*
X66051043Y-69588915D01*
X66215836Y-69504947D01*
X66215845Y-69504942D01*
X66236430Y-69489984D01*
X66236431Y-69489983D01*
X66098583Y-69352135D01*
X68399500Y-69352135D01*
X68399500Y-70647870D01*
X68399501Y-70647876D01*
X68405908Y-70707483D01*
X68456202Y-70842328D01*
X68456206Y-70842335D01*
X68542452Y-70957544D01*
X68542455Y-70957547D01*
X68657664Y-71043793D01*
X68657671Y-71043797D01*
X68792517Y-71094091D01*
X68792516Y-71094091D01*
X68799444Y-71094835D01*
X68852127Y-71100500D01*
X70147872Y-71100499D01*
X70207483Y-71094091D01*
X70342331Y-71043796D01*
X70457546Y-70957546D01*
X70543796Y-70842331D01*
X70594091Y-70707483D01*
X70600500Y-70647873D01*
X70600499Y-69913389D01*
X79499500Y-69913389D01*
X79499500Y-70086611D01*
X79526598Y-70257701D01*
X79580127Y-70422445D01*
X79658768Y-70576788D01*
X79760586Y-70716928D01*
X79883072Y-70839414D01*
X80023212Y-70941232D01*
X80177555Y-71019873D01*
X80342299Y-71073402D01*
X80513389Y-71100500D01*
X80513390Y-71100500D01*
X80686610Y-71100500D01*
X80686611Y-71100500D01*
X80857701Y-71073402D01*
X81022445Y-71019873D01*
X81176788Y-70941232D01*
X81316928Y-70839414D01*
X81439414Y-70716928D01*
X81541232Y-70576788D01*
X81619873Y-70422445D01*
X81673402Y-70257701D01*
X81700500Y-70086611D01*
X81700500Y-69913389D01*
X81673402Y-69742299D01*
X81619873Y-69577555D01*
X81541232Y-69423212D01*
X81439414Y-69283072D01*
X81316928Y-69160586D01*
X81176788Y-69058768D01*
X81022445Y-68980127D01*
X80857701Y-68926598D01*
X80857699Y-68926597D01*
X80857698Y-68926597D01*
X80726271Y-68905781D01*
X80686611Y-68899500D01*
X80513389Y-68899500D01*
X80473728Y-68905781D01*
X80342302Y-68926597D01*
X80177552Y-68980128D01*
X80023211Y-69058768D01*
X79943256Y-69116859D01*
X79883072Y-69160586D01*
X79883070Y-69160588D01*
X79883069Y-69160588D01*
X79760588Y-69283069D01*
X79760588Y-69283070D01*
X79760586Y-69283072D01*
X79753725Y-69292516D01*
X79658768Y-69423211D01*
X79580128Y-69577552D01*
X79526597Y-69742302D01*
X79499500Y-69913389D01*
X70600499Y-69913389D01*
X70600499Y-69352128D01*
X70594091Y-69292517D01*
X70590568Y-69283072D01*
X70543797Y-69157671D01*
X70543793Y-69157664D01*
X70457547Y-69042455D01*
X70457544Y-69042452D01*
X70342335Y-68956206D01*
X70342328Y-68956202D01*
X70207482Y-68905908D01*
X70207483Y-68905908D01*
X70147883Y-68899501D01*
X70147881Y-68899500D01*
X70147873Y-68899500D01*
X70147864Y-68899500D01*
X68852129Y-68899500D01*
X68852123Y-68899501D01*
X68792516Y-68905908D01*
X68657671Y-68956202D01*
X68657664Y-68956206D01*
X68542455Y-69042452D01*
X68542452Y-69042455D01*
X68456206Y-69157664D01*
X68456202Y-69157671D01*
X68405908Y-69292517D01*
X68399501Y-69352116D01*
X68399501Y-69352123D01*
X68399500Y-69352135D01*
X66098583Y-69352135D01*
X65646448Y-68900000D01*
X65652661Y-68900000D01*
X65754394Y-68872741D01*
X65845606Y-68820080D01*
X65920080Y-68745606D01*
X65972741Y-68654394D01*
X66000000Y-68552661D01*
X66000000Y-68546447D01*
X66589983Y-69136430D01*
X66589984Y-69136430D01*
X66604942Y-69115845D01*
X66604947Y-69115836D01*
X66688915Y-68951043D01*
X66688916Y-68951040D01*
X66746066Y-68775147D01*
X66775000Y-68592473D01*
X66775000Y-68407526D01*
X66746066Y-68224852D01*
X66688916Y-68048959D01*
X66688915Y-68048956D01*
X66604947Y-67884161D01*
X66521054Y-67768691D01*
X66497574Y-67702884D01*
X66513400Y-67634831D01*
X66547058Y-67596542D01*
X66632546Y-67532546D01*
X66718796Y-67417331D01*
X66769091Y-67282483D01*
X66775500Y-67222873D01*
X66775499Y-66352135D01*
X68399500Y-66352135D01*
X68399500Y-67647870D01*
X68399501Y-67647876D01*
X68405908Y-67707483D01*
X68456202Y-67842328D01*
X68456206Y-67842335D01*
X68542452Y-67957544D01*
X68542455Y-67957547D01*
X68657664Y-68043793D01*
X68657671Y-68043797D01*
X68792517Y-68094091D01*
X68792516Y-68094091D01*
X68799444Y-68094835D01*
X68852127Y-68100500D01*
X70147872Y-68100499D01*
X70207483Y-68094091D01*
X70342331Y-68043796D01*
X70457546Y-67957546D01*
X70543796Y-67842331D01*
X70594091Y-67707483D01*
X70600500Y-67647873D01*
X70600499Y-66913389D01*
X79499500Y-66913389D01*
X79499500Y-67086610D01*
X79521081Y-67222872D01*
X79526598Y-67257701D01*
X79580127Y-67422445D01*
X79658768Y-67576788D01*
X79760586Y-67716928D01*
X79883072Y-67839414D01*
X80023212Y-67941232D01*
X80177555Y-68019873D01*
X80342299Y-68073402D01*
X80513389Y-68100500D01*
X80513390Y-68100500D01*
X80686610Y-68100500D01*
X80686611Y-68100500D01*
X80857701Y-68073402D01*
X81022445Y-68019873D01*
X81176788Y-67941232D01*
X81316928Y-67839414D01*
X81439414Y-67716928D01*
X81541232Y-67576788D01*
X81619873Y-67422445D01*
X81627930Y-67397648D01*
X84799500Y-67397648D01*
X84799500Y-67602351D01*
X84831522Y-67804534D01*
X84894781Y-67999223D01*
X84946384Y-68100498D01*
X84987585Y-68181359D01*
X84987715Y-68181613D01*
X85108028Y-68347213D01*
X85252786Y-68491971D01*
X85373226Y-68579474D01*
X85418390Y-68612287D01*
X85501030Y-68654394D01*
X85600776Y-68705218D01*
X85600778Y-68705218D01*
X85600781Y-68705220D01*
X85705137Y-68739127D01*
X85795465Y-68768477D01*
X85896557Y-68784488D01*
X85997648Y-68800500D01*
X85997649Y-68800500D01*
X86202351Y-68800500D01*
X86202352Y-68800500D01*
X86404534Y-68768477D01*
X86599219Y-68705220D01*
X86781610Y-68612287D01*
X86874590Y-68544732D01*
X86947213Y-68491971D01*
X86947215Y-68491968D01*
X86947219Y-68491966D01*
X87091966Y-68347219D01*
X87091968Y-68347215D01*
X87091971Y-68347213D01*
X87159407Y-68254394D01*
X87212287Y-68181610D01*
X87305220Y-67999219D01*
X87368477Y-67804534D01*
X87400500Y-67602352D01*
X87400500Y-67397682D01*
X94960000Y-67397682D01*
X94960000Y-67602317D01*
X94992009Y-67804417D01*
X95055244Y-67999031D01*
X95148141Y-68181350D01*
X95148147Y-68181359D01*
X95180523Y-68225921D01*
X95180524Y-68225922D01*
X95860000Y-67546446D01*
X95860000Y-67552661D01*
X95887259Y-67654394D01*
X95939920Y-67745606D01*
X96014394Y-67820080D01*
X96105606Y-67872741D01*
X96207339Y-67900000D01*
X96213553Y-67900000D01*
X95534076Y-68579474D01*
X95578650Y-68611859D01*
X95760968Y-68704755D01*
X95955582Y-68767990D01*
X96157683Y-68800000D01*
X96362317Y-68800000D01*
X96564417Y-68767990D01*
X96759031Y-68704755D01*
X96941349Y-68611859D01*
X96985921Y-68579474D01*
X96306447Y-67900000D01*
X96312661Y-67900000D01*
X96414394Y-67872741D01*
X96505606Y-67820080D01*
X96580080Y-67745606D01*
X96632741Y-67654394D01*
X96660000Y-67552661D01*
X96660000Y-67546447D01*
X97339474Y-68225921D01*
X97371859Y-68181349D01*
X97464755Y-67999031D01*
X97527990Y-67804417D01*
X97560000Y-67602317D01*
X97560000Y-67397682D01*
X97527990Y-67195582D01*
X97464755Y-67000968D01*
X97430292Y-66933331D01*
X97404088Y-66881902D01*
X99599500Y-66881902D01*
X99599500Y-67118097D01*
X99636446Y-67351368D01*
X99709433Y-67575996D01*
X99807616Y-67768690D01*
X99816657Y-67786433D01*
X99955483Y-67977510D01*
X100122490Y-68144517D01*
X100313567Y-68283343D01*
X100412991Y-68334002D01*
X100524003Y-68390566D01*
X100524005Y-68390566D01*
X100524008Y-68390568D01*
X100586596Y-68410904D01*
X100748631Y-68463553D01*
X100981903Y-68500500D01*
X100981908Y-68500500D01*
X101218097Y-68500500D01*
X101451368Y-68463553D01*
X101509902Y-68444534D01*
X101675992Y-68390568D01*
X101886433Y-68283343D01*
X102077510Y-68144517D01*
X102244517Y-67977510D01*
X102383343Y-67786433D01*
X102490568Y-67575992D01*
X102563553Y-67351368D01*
X102574463Y-67282483D01*
X102600500Y-67118097D01*
X102600500Y-66881902D01*
X102563553Y-66648631D01*
X102490566Y-66424003D01*
X102424959Y-66295244D01*
X102383343Y-66213567D01*
X102244517Y-66022490D01*
X102077510Y-65855483D01*
X101886433Y-65716657D01*
X101675996Y-65609433D01*
X101451368Y-65536446D01*
X101218097Y-65499500D01*
X101218092Y-65499500D01*
X100981908Y-65499500D01*
X100981903Y-65499500D01*
X100748631Y-65536446D01*
X100524003Y-65609433D01*
X100313566Y-65716657D01*
X100230326Y-65777135D01*
X100122490Y-65855483D01*
X100122488Y-65855485D01*
X100122487Y-65855485D01*
X99955485Y-66022487D01*
X99955485Y-66022488D01*
X99955483Y-66022490D01*
X99895862Y-66104550D01*
X99816657Y-66213566D01*
X99709433Y-66424003D01*
X99636446Y-66648631D01*
X99599500Y-66881902D01*
X97404088Y-66881902D01*
X97371859Y-66818650D01*
X97339474Y-66774077D01*
X97339474Y-66774076D01*
X96660000Y-67453551D01*
X96660000Y-67447339D01*
X96632741Y-67345606D01*
X96580080Y-67254394D01*
X96505606Y-67179920D01*
X96414394Y-67127259D01*
X96312661Y-67100000D01*
X96306446Y-67100000D01*
X96985922Y-66420524D01*
X96985921Y-66420523D01*
X96941359Y-66388147D01*
X96941350Y-66388141D01*
X96759031Y-66295244D01*
X96564417Y-66232009D01*
X96362317Y-66200000D01*
X96157683Y-66200000D01*
X95955582Y-66232009D01*
X95760968Y-66295244D01*
X95578644Y-66388143D01*
X95534077Y-66420523D01*
X95534077Y-66420524D01*
X96213554Y-67100000D01*
X96207339Y-67100000D01*
X96105606Y-67127259D01*
X96014394Y-67179920D01*
X95939920Y-67254394D01*
X95887259Y-67345606D01*
X95860000Y-67447339D01*
X95860000Y-67453553D01*
X95180524Y-66774077D01*
X95180523Y-66774077D01*
X95148143Y-66818644D01*
X95055244Y-67000968D01*
X94992009Y-67195582D01*
X94960000Y-67397682D01*
X87400500Y-67397682D01*
X87400500Y-67397648D01*
X87378333Y-67257695D01*
X87368477Y-67195465D01*
X87333108Y-67086611D01*
X87305220Y-67000781D01*
X87305218Y-67000778D01*
X87305218Y-67000776D01*
X87212419Y-66818650D01*
X87212287Y-66818390D01*
X87180092Y-66774077D01*
X87091971Y-66652786D01*
X86947213Y-66508028D01*
X86781613Y-66387715D01*
X86781612Y-66387714D01*
X86781610Y-66387713D01*
X86724653Y-66358691D01*
X86599223Y-66294781D01*
X86404534Y-66231522D01*
X86229995Y-66203878D01*
X86202352Y-66199500D01*
X85997648Y-66199500D01*
X85973329Y-66203351D01*
X85795465Y-66231522D01*
X85600776Y-66294781D01*
X85418386Y-66387715D01*
X85252786Y-66508028D01*
X85108028Y-66652786D01*
X84987715Y-66818386D01*
X84894781Y-67000776D01*
X84831522Y-67195465D01*
X84799500Y-67397648D01*
X81627930Y-67397648D01*
X81673402Y-67257701D01*
X81700500Y-67086611D01*
X81700500Y-66913389D01*
X81673402Y-66742299D01*
X81619873Y-66577555D01*
X81541232Y-66423212D01*
X81439414Y-66283072D01*
X81316928Y-66160586D01*
X81176788Y-66058768D01*
X81022445Y-65980127D01*
X80857701Y-65926598D01*
X80857699Y-65926597D01*
X80857698Y-65926597D01*
X80726271Y-65905781D01*
X80686611Y-65899500D01*
X80513389Y-65899500D01*
X80473728Y-65905781D01*
X80342302Y-65926597D01*
X80177552Y-65980128D01*
X80023211Y-66058768D01*
X79943256Y-66116859D01*
X79883072Y-66160586D01*
X79883070Y-66160588D01*
X79883069Y-66160588D01*
X79760588Y-66283069D01*
X79760588Y-66283070D01*
X79760586Y-66283072D01*
X79716859Y-66343256D01*
X79658768Y-66423211D01*
X79580128Y-66577552D01*
X79580127Y-66577554D01*
X79580127Y-66577555D01*
X79555684Y-66652781D01*
X79526597Y-66742302D01*
X79499500Y-66913389D01*
X70600499Y-66913389D01*
X70600499Y-66352128D01*
X70594091Y-66292517D01*
X70590568Y-66283072D01*
X70543797Y-66157671D01*
X70543793Y-66157664D01*
X70457547Y-66042455D01*
X70457544Y-66042452D01*
X70342335Y-65956206D01*
X70342328Y-65956202D01*
X70207482Y-65905908D01*
X70207483Y-65905908D01*
X70147883Y-65899501D01*
X70147881Y-65899500D01*
X70147873Y-65899500D01*
X70147864Y-65899500D01*
X68852129Y-65899500D01*
X68852123Y-65899501D01*
X68792516Y-65905908D01*
X68657671Y-65956202D01*
X68657664Y-65956206D01*
X68542455Y-66042452D01*
X68542452Y-66042455D01*
X68456206Y-66157664D01*
X68456202Y-66157671D01*
X68405908Y-66292517D01*
X68399501Y-66352116D01*
X68399501Y-66352123D01*
X68399500Y-66352135D01*
X66775499Y-66352135D01*
X66775499Y-65777128D01*
X66769091Y-65717517D01*
X66768770Y-65716657D01*
X66718797Y-65582671D01*
X66718793Y-65582664D01*
X66632547Y-65467455D01*
X66632544Y-65467452D01*
X66517335Y-65381206D01*
X66517328Y-65381202D01*
X66382482Y-65330908D01*
X66382483Y-65330908D01*
X66322883Y-65324501D01*
X66322881Y-65324500D01*
X66322873Y-65324500D01*
X66322864Y-65324500D01*
X64877129Y-65324500D01*
X64877123Y-65324501D01*
X64817516Y-65330908D01*
X64682671Y-65381202D01*
X64682664Y-65381206D01*
X64567455Y-65467452D01*
X64567452Y-65467455D01*
X64481206Y-65582664D01*
X64481202Y-65582671D01*
X64430908Y-65717517D01*
X64424850Y-65773868D01*
X64424501Y-65777123D01*
X64424500Y-65777135D01*
X58546175Y-65777135D01*
X58546173Y-65773868D01*
X58544129Y-61675000D01*
X58542721Y-58852135D01*
X68299500Y-58852135D01*
X68299500Y-60147870D01*
X68299501Y-60147876D01*
X68305908Y-60207483D01*
X68356202Y-60342328D01*
X68356206Y-60342335D01*
X68442452Y-60457544D01*
X68442455Y-60457547D01*
X68557664Y-60543793D01*
X68557671Y-60543797D01*
X68692517Y-60594091D01*
X68692516Y-60594091D01*
X68699444Y-60594835D01*
X68752127Y-60600500D01*
X70047872Y-60600499D01*
X70107483Y-60594091D01*
X70242331Y-60543796D01*
X70357546Y-60457546D01*
X70443796Y-60342331D01*
X70494091Y-60207483D01*
X70500500Y-60147873D01*
X70500499Y-59413389D01*
X79399500Y-59413389D01*
X79399500Y-59586611D01*
X79401073Y-59596540D01*
X79425670Y-59751847D01*
X79426598Y-59757701D01*
X79480127Y-59922445D01*
X79558768Y-60076788D01*
X79660586Y-60216928D01*
X79783072Y-60339414D01*
X79923212Y-60441232D01*
X80077555Y-60519873D01*
X80242299Y-60573402D01*
X80413389Y-60600500D01*
X80413390Y-60600500D01*
X80586610Y-60600500D01*
X80586611Y-60600500D01*
X80757701Y-60573402D01*
X80922445Y-60519873D01*
X81076788Y-60441232D01*
X81216928Y-60339414D01*
X81339414Y-60216928D01*
X81441232Y-60076788D01*
X81519873Y-59922445D01*
X81573402Y-59757701D01*
X81600500Y-59586611D01*
X81600500Y-59413389D01*
X81573402Y-59242299D01*
X81519873Y-59077555D01*
X81441232Y-58923212D01*
X81339414Y-58783072D01*
X81216928Y-58660586D01*
X81076788Y-58558768D01*
X80936957Y-58487521D01*
X80936955Y-58487519D01*
X80922450Y-58480129D01*
X80922447Y-58480128D01*
X80922445Y-58480127D01*
X80757701Y-58426598D01*
X80757699Y-58426597D01*
X80757698Y-58426597D01*
X80626271Y-58405781D01*
X80586611Y-58399500D01*
X80413389Y-58399500D01*
X80373728Y-58405781D01*
X80242302Y-58426597D01*
X80077552Y-58480128D01*
X79923211Y-58558768D01*
X79843256Y-58616859D01*
X79783072Y-58660586D01*
X79783070Y-58660588D01*
X79783069Y-58660588D01*
X79660588Y-58783069D01*
X79660588Y-58783070D01*
X79660586Y-58783072D01*
X79635560Y-58817517D01*
X79558768Y-58923211D01*
X79480128Y-59077552D01*
X79426597Y-59242302D01*
X79399500Y-59413389D01*
X70500499Y-59413389D01*
X70500499Y-58852128D01*
X70494827Y-58799360D01*
X70494091Y-58792516D01*
X70443797Y-58657671D01*
X70443793Y-58657664D01*
X70357547Y-58542455D01*
X70357544Y-58542452D01*
X70242335Y-58456206D01*
X70242328Y-58456202D01*
X70107482Y-58405908D01*
X70107483Y-58405908D01*
X70047883Y-58399501D01*
X70047881Y-58399500D01*
X70047873Y-58399500D01*
X70047864Y-58399500D01*
X68752129Y-58399500D01*
X68752123Y-58399501D01*
X68692516Y-58405908D01*
X68557671Y-58456202D01*
X68557664Y-58456206D01*
X68442455Y-58542452D01*
X68442452Y-58542455D01*
X68356206Y-58657664D01*
X68356202Y-58657671D01*
X68305908Y-58792517D01*
X68299501Y-58852116D01*
X68299501Y-58852123D01*
X68299500Y-58852135D01*
X58542721Y-58852135D01*
X58542487Y-58381902D01*
X82999500Y-58381902D01*
X82999500Y-58618097D01*
X83036446Y-58851368D01*
X83109433Y-59075996D01*
X83194171Y-59242302D01*
X83216657Y-59286433D01*
X83355483Y-59477510D01*
X83522490Y-59644517D01*
X83713567Y-59783343D01*
X83812991Y-59834002D01*
X83924003Y-59890566D01*
X83924005Y-59890566D01*
X83924008Y-59890568D01*
X83992582Y-59912849D01*
X84148631Y-59963553D01*
X84381903Y-60000500D01*
X84381908Y-60000500D01*
X84618097Y-60000500D01*
X84851368Y-59963553D01*
X85075992Y-59890568D01*
X85286433Y-59783343D01*
X85477510Y-59644517D01*
X85644517Y-59477510D01*
X85783343Y-59286433D01*
X85890568Y-59075992D01*
X85955181Y-58877135D01*
X89924500Y-58877135D01*
X89924500Y-60122870D01*
X89924501Y-60122876D01*
X89930908Y-60182483D01*
X89981202Y-60317328D01*
X89981206Y-60317335D01*
X90067452Y-60432544D01*
X90067455Y-60432547D01*
X90182664Y-60518793D01*
X90182671Y-60518797D01*
X90317517Y-60569091D01*
X90317516Y-60569091D01*
X90324444Y-60569835D01*
X90377127Y-60575500D01*
X91622872Y-60575499D01*
X91682483Y-60569091D01*
X91817331Y-60518796D01*
X91932546Y-60432546D01*
X92018796Y-60317331D01*
X92026764Y-60295966D01*
X92068633Y-60240032D01*
X92134096Y-60215612D01*
X92202370Y-60230461D01*
X92230628Y-60251615D01*
X92299360Y-60320347D01*
X92299365Y-60320351D01*
X92384773Y-60382403D01*
X92436315Y-60419850D01*
X92532425Y-60468820D01*
X92587146Y-60496703D01*
X92587148Y-60496703D01*
X92587151Y-60496705D01*
X92673450Y-60524745D01*
X92748152Y-60549018D01*
X92915351Y-60575500D01*
X92915356Y-60575500D01*
X93084649Y-60575500D01*
X93251847Y-60549018D01*
X93412849Y-60496705D01*
X93563685Y-60419850D01*
X93700641Y-60320346D01*
X93820346Y-60200641D01*
X93919850Y-60063685D01*
X93996705Y-59912849D01*
X94049018Y-59751847D01*
X94061110Y-59675500D01*
X94075500Y-59584649D01*
X94075500Y-59415350D01*
X94049018Y-59248152D01*
X93996703Y-59087146D01*
X93924500Y-58945442D01*
X93919850Y-58936315D01*
X93907137Y-58918817D01*
X93820351Y-58799365D01*
X93820347Y-58799360D01*
X93700639Y-58679652D01*
X93700634Y-58679648D01*
X93563688Y-58580152D01*
X93563687Y-58580151D01*
X93563685Y-58580150D01*
X93489699Y-58542452D01*
X93412853Y-58503296D01*
X93251847Y-58450981D01*
X93084649Y-58424500D01*
X93084644Y-58424500D01*
X92915356Y-58424500D01*
X92915351Y-58424500D01*
X92748152Y-58450981D01*
X92587146Y-58503296D01*
X92436311Y-58580152D01*
X92299366Y-58679647D01*
X92230628Y-58748385D01*
X92169304Y-58781869D01*
X92099613Y-58776884D01*
X92043679Y-58735013D01*
X92026764Y-58704033D01*
X92018797Y-58682671D01*
X92018793Y-58682664D01*
X91932547Y-58567455D01*
X91932544Y-58567452D01*
X91817335Y-58481206D01*
X91817328Y-58481202D01*
X91682482Y-58430908D01*
X91682483Y-58430908D01*
X91622883Y-58424501D01*
X91622881Y-58424500D01*
X91622873Y-58424500D01*
X91622864Y-58424500D01*
X90377129Y-58424500D01*
X90377123Y-58424501D01*
X90317516Y-58430908D01*
X90182671Y-58481202D01*
X90182664Y-58481206D01*
X90067455Y-58567452D01*
X90067452Y-58567455D01*
X89981206Y-58682664D01*
X89981202Y-58682671D01*
X89930908Y-58817517D01*
X89924501Y-58877116D01*
X89924500Y-58877135D01*
X85955181Y-58877135D01*
X85963553Y-58851368D01*
X85981982Y-58735013D01*
X86000500Y-58618097D01*
X86000500Y-58381902D01*
X85963553Y-58148631D01*
X85890566Y-57924003D01*
X85842720Y-57830101D01*
X85815732Y-57777135D01*
X99824500Y-57777135D01*
X99824500Y-59222870D01*
X99824501Y-59222876D01*
X99830908Y-59282483D01*
X99881202Y-59417328D01*
X99881206Y-59417335D01*
X99967452Y-59532544D01*
X99967455Y-59532547D01*
X100052938Y-59596540D01*
X100094809Y-59652473D01*
X100099793Y-59722165D01*
X100078946Y-59768690D01*
X99995051Y-59884163D01*
X99911084Y-60048956D01*
X99911083Y-60048959D01*
X99853933Y-60224852D01*
X99825000Y-60407526D01*
X99825000Y-60592473D01*
X99853933Y-60775147D01*
X99911083Y-60951040D01*
X99911084Y-60951043D01*
X99995050Y-61115834D01*
X100010015Y-61136430D01*
X100600000Y-60546445D01*
X100600000Y-60552661D01*
X100627259Y-60654394D01*
X100679920Y-60745606D01*
X100754394Y-60820080D01*
X100845606Y-60872741D01*
X100947339Y-60900000D01*
X100953553Y-60900000D01*
X100363568Y-61489983D01*
X100363568Y-61489984D01*
X100384165Y-61504949D01*
X100548956Y-61588915D01*
X100548959Y-61588916D01*
X100724852Y-61646066D01*
X100907527Y-61675000D01*
X101092473Y-61675000D01*
X101275147Y-61646066D01*
X101451040Y-61588916D01*
X101451043Y-61588915D01*
X101615836Y-61504947D01*
X101615845Y-61504942D01*
X101636430Y-61489984D01*
X101636431Y-61489983D01*
X101046448Y-60900000D01*
X101052661Y-60900000D01*
X101154394Y-60872741D01*
X101245606Y-60820080D01*
X101320080Y-60745606D01*
X101372741Y-60654394D01*
X101400000Y-60552661D01*
X101400000Y-60546447D01*
X101989983Y-61136430D01*
X101989984Y-61136430D01*
X102004942Y-61115845D01*
X102004947Y-61115836D01*
X102088915Y-60951043D01*
X102088916Y-60951040D01*
X102146066Y-60775147D01*
X102175000Y-60592473D01*
X102175000Y-60407526D01*
X102146066Y-60224852D01*
X102088916Y-60048959D01*
X102088915Y-60048956D01*
X102004947Y-59884161D01*
X101921054Y-59768691D01*
X101897574Y-59702884D01*
X101913400Y-59634831D01*
X101947058Y-59596542D01*
X102032546Y-59532546D01*
X102118796Y-59417331D01*
X102169091Y-59282483D01*
X102175500Y-59222873D01*
X102175499Y-57777128D01*
X102169091Y-57717517D01*
X102167617Y-57713566D01*
X102118797Y-57582671D01*
X102118793Y-57582664D01*
X102032547Y-57467455D01*
X102032544Y-57467452D01*
X101917335Y-57381206D01*
X101917328Y-57381202D01*
X101782482Y-57330908D01*
X101782483Y-57330908D01*
X101722883Y-57324501D01*
X101722881Y-57324500D01*
X101722873Y-57324500D01*
X101722864Y-57324500D01*
X100277129Y-57324500D01*
X100277123Y-57324501D01*
X100217516Y-57330908D01*
X100082671Y-57381202D01*
X100082664Y-57381206D01*
X99967455Y-57467452D01*
X99967452Y-57467455D01*
X99881206Y-57582664D01*
X99881202Y-57582671D01*
X99830908Y-57717517D01*
X99824501Y-57777116D01*
X99824501Y-57777123D01*
X99824500Y-57777135D01*
X85815732Y-57777135D01*
X85783343Y-57713567D01*
X85644517Y-57522490D01*
X85477510Y-57355483D01*
X85286433Y-57216657D01*
X85268426Y-57207482D01*
X85075996Y-57109433D01*
X84851368Y-57036446D01*
X84618097Y-56999500D01*
X84618092Y-56999500D01*
X84381908Y-56999500D01*
X84381903Y-56999500D01*
X84148631Y-57036446D01*
X83924003Y-57109433D01*
X83713566Y-57216657D01*
X83604550Y-57295862D01*
X83522490Y-57355483D01*
X83522488Y-57355485D01*
X83522487Y-57355485D01*
X83355485Y-57522487D01*
X83355485Y-57522488D01*
X83355483Y-57522490D01*
X83340003Y-57543797D01*
X83216657Y-57713566D01*
X83109433Y-57924003D01*
X83036446Y-58148631D01*
X82999500Y-58381902D01*
X58542487Y-58381902D01*
X58539692Y-52777135D01*
X64324500Y-52777135D01*
X64324500Y-54222870D01*
X64324501Y-54222876D01*
X64330908Y-54282483D01*
X64381202Y-54417328D01*
X64381206Y-54417335D01*
X64467452Y-54532544D01*
X64467455Y-54532547D01*
X64552938Y-54596540D01*
X64594809Y-54652473D01*
X64599793Y-54722165D01*
X64578946Y-54768690D01*
X64495051Y-54884163D01*
X64411084Y-55048956D01*
X64411083Y-55048959D01*
X64353933Y-55224852D01*
X64325000Y-55407526D01*
X64325000Y-55592473D01*
X64353933Y-55775147D01*
X64411083Y-55951040D01*
X64411084Y-55951043D01*
X64495050Y-56115834D01*
X64510015Y-56136430D01*
X65100000Y-55546445D01*
X65100000Y-55552661D01*
X65127259Y-55654394D01*
X65179920Y-55745606D01*
X65254394Y-55820080D01*
X65345606Y-55872741D01*
X65447339Y-55900000D01*
X65453553Y-55900000D01*
X64863568Y-56489983D01*
X64863568Y-56489984D01*
X64884165Y-56504949D01*
X65048956Y-56588915D01*
X65048959Y-56588916D01*
X65224852Y-56646066D01*
X65407527Y-56675000D01*
X65592473Y-56675000D01*
X65775147Y-56646066D01*
X65951040Y-56588916D01*
X65951043Y-56588915D01*
X66115836Y-56504947D01*
X66115845Y-56504942D01*
X66136430Y-56489984D01*
X66136431Y-56489983D01*
X65546448Y-55900000D01*
X65552661Y-55900000D01*
X65654394Y-55872741D01*
X65745606Y-55820080D01*
X65820080Y-55745606D01*
X65872741Y-55654394D01*
X65900000Y-55552661D01*
X65900000Y-55546447D01*
X66489983Y-56136430D01*
X66489984Y-56136430D01*
X66504942Y-56115845D01*
X66504947Y-56115836D01*
X66588915Y-55951043D01*
X66588916Y-55951040D01*
X66621052Y-55852135D01*
X68299500Y-55852135D01*
X68299500Y-57147870D01*
X68299501Y-57147876D01*
X68305908Y-57207483D01*
X68356202Y-57342328D01*
X68356206Y-57342335D01*
X68442452Y-57457544D01*
X68442455Y-57457547D01*
X68557664Y-57543793D01*
X68557671Y-57543797D01*
X68692517Y-57594091D01*
X68692516Y-57594091D01*
X68699444Y-57594835D01*
X68752127Y-57600500D01*
X70047872Y-57600499D01*
X70107483Y-57594091D01*
X70242331Y-57543796D01*
X70357546Y-57457546D01*
X70443796Y-57342331D01*
X70494091Y-57207483D01*
X70500500Y-57147873D01*
X70500499Y-56413389D01*
X79399500Y-56413389D01*
X79399500Y-56586611D01*
X79426598Y-56757701D01*
X79480127Y-56922445D01*
X79558768Y-57076788D01*
X79660586Y-57216928D01*
X79783072Y-57339414D01*
X79923212Y-57441232D01*
X80077555Y-57519873D01*
X80242299Y-57573402D01*
X80413389Y-57600500D01*
X80413390Y-57600500D01*
X80586610Y-57600500D01*
X80586611Y-57600500D01*
X80757701Y-57573402D01*
X80922445Y-57519873D01*
X81076788Y-57441232D01*
X81216928Y-57339414D01*
X81339414Y-57216928D01*
X81441232Y-57076788D01*
X81519873Y-56922445D01*
X81573402Y-56757701D01*
X81600500Y-56586611D01*
X81600500Y-56413389D01*
X81573402Y-56242299D01*
X81519873Y-56077555D01*
X81441232Y-55923212D01*
X81339414Y-55783072D01*
X81216928Y-55660586D01*
X81076788Y-55558768D01*
X80922445Y-55480127D01*
X80757701Y-55426598D01*
X80757699Y-55426597D01*
X80757698Y-55426597D01*
X80626271Y-55405781D01*
X80586611Y-55399500D01*
X80413389Y-55399500D01*
X80373728Y-55405781D01*
X80242302Y-55426597D01*
X80077552Y-55480128D01*
X79923211Y-55558768D01*
X79876821Y-55592473D01*
X79783072Y-55660586D01*
X79783070Y-55660588D01*
X79783069Y-55660588D01*
X79660588Y-55783069D01*
X79660588Y-55783070D01*
X79660586Y-55783072D01*
X79653725Y-55792516D01*
X79558768Y-55923211D01*
X79480128Y-56077552D01*
X79426597Y-56242302D01*
X79399500Y-56413389D01*
X70500499Y-56413389D01*
X70500499Y-55852128D01*
X70494091Y-55792517D01*
X70490568Y-55783072D01*
X70443797Y-55657671D01*
X70443793Y-55657664D01*
X70357547Y-55542455D01*
X70357544Y-55542452D01*
X70242335Y-55456206D01*
X70242328Y-55456202D01*
X70107482Y-55405908D01*
X70107483Y-55405908D01*
X70047883Y-55399501D01*
X70047881Y-55399500D01*
X70047873Y-55399500D01*
X70047864Y-55399500D01*
X68752129Y-55399500D01*
X68752123Y-55399501D01*
X68692516Y-55405908D01*
X68557671Y-55456202D01*
X68557664Y-55456206D01*
X68442455Y-55542452D01*
X68442452Y-55542455D01*
X68356206Y-55657664D01*
X68356202Y-55657671D01*
X68305908Y-55792517D01*
X68299501Y-55852116D01*
X68299501Y-55852123D01*
X68299500Y-55852135D01*
X66621052Y-55852135D01*
X66634584Y-55810488D01*
X66646066Y-55775147D01*
X66675000Y-55592473D01*
X66675000Y-55407526D01*
X66646066Y-55224852D01*
X66588916Y-55048959D01*
X66588915Y-55048956D01*
X66504947Y-54884161D01*
X66421054Y-54768691D01*
X66397574Y-54702884D01*
X66413400Y-54634831D01*
X66447058Y-54596542D01*
X66532546Y-54532546D01*
X66618796Y-54417331D01*
X66669091Y-54282483D01*
X66675500Y-54222873D01*
X66675499Y-52852135D01*
X68299500Y-52852135D01*
X68299500Y-54147870D01*
X68299501Y-54147876D01*
X68305908Y-54207483D01*
X68356202Y-54342328D01*
X68356206Y-54342335D01*
X68442452Y-54457544D01*
X68442455Y-54457547D01*
X68557664Y-54543793D01*
X68557671Y-54543797D01*
X68692517Y-54594091D01*
X68692516Y-54594091D01*
X68699444Y-54594835D01*
X68752127Y-54600500D01*
X70047872Y-54600499D01*
X70107483Y-54594091D01*
X70242331Y-54543796D01*
X70357546Y-54457546D01*
X70443796Y-54342331D01*
X70494091Y-54207483D01*
X70500500Y-54147873D01*
X70500499Y-53413389D01*
X79399500Y-53413389D01*
X79399500Y-53586611D01*
X79426598Y-53757701D01*
X79480127Y-53922445D01*
X79558768Y-54076788D01*
X79660586Y-54216928D01*
X79783072Y-54339414D01*
X79923212Y-54441232D01*
X80077555Y-54519873D01*
X80242299Y-54573402D01*
X80413389Y-54600500D01*
X80413390Y-54600500D01*
X80586610Y-54600500D01*
X80586611Y-54600500D01*
X80757701Y-54573402D01*
X80922445Y-54519873D01*
X81076788Y-54441232D01*
X81216928Y-54339414D01*
X81339414Y-54216928D01*
X81441232Y-54076788D01*
X81519873Y-53922445D01*
X81527930Y-53897648D01*
X84699500Y-53897648D01*
X84699500Y-54102351D01*
X84731522Y-54304534D01*
X84794781Y-54499223D01*
X84846384Y-54600498D01*
X84887585Y-54681359D01*
X84887715Y-54681613D01*
X85008028Y-54847213D01*
X85152786Y-54991971D01*
X85273226Y-55079474D01*
X85318390Y-55112287D01*
X85434607Y-55171503D01*
X85500776Y-55205218D01*
X85500778Y-55205218D01*
X85500781Y-55205220D01*
X85605137Y-55239127D01*
X85695465Y-55268477D01*
X85796557Y-55284488D01*
X85897648Y-55300500D01*
X85897649Y-55300500D01*
X86102351Y-55300500D01*
X86102352Y-55300500D01*
X86304534Y-55268477D01*
X86499219Y-55205220D01*
X86681610Y-55112287D01*
X86774590Y-55044732D01*
X86847213Y-54991971D01*
X86847215Y-54991968D01*
X86847219Y-54991966D01*
X86991966Y-54847219D01*
X86991968Y-54847215D01*
X86991971Y-54847213D01*
X87049020Y-54768690D01*
X87112287Y-54681610D01*
X87205220Y-54499219D01*
X87268477Y-54304534D01*
X87300500Y-54102352D01*
X87300500Y-53897682D01*
X94860000Y-53897682D01*
X94860000Y-54102317D01*
X94892009Y-54304417D01*
X94955244Y-54499031D01*
X95048141Y-54681350D01*
X95048147Y-54681359D01*
X95080523Y-54725921D01*
X95080524Y-54725922D01*
X95760000Y-54046446D01*
X95760000Y-54052661D01*
X95787259Y-54154394D01*
X95839920Y-54245606D01*
X95914394Y-54320080D01*
X96005606Y-54372741D01*
X96107339Y-54400000D01*
X96113553Y-54400000D01*
X95434076Y-55079474D01*
X95478650Y-55111859D01*
X95660968Y-55204755D01*
X95855582Y-55267990D01*
X96057683Y-55300000D01*
X96262317Y-55300000D01*
X96464417Y-55267990D01*
X96659031Y-55204755D01*
X96841349Y-55111859D01*
X96885921Y-55079474D01*
X96206447Y-54400000D01*
X96212661Y-54400000D01*
X96314394Y-54372741D01*
X96405606Y-54320080D01*
X96480080Y-54245606D01*
X96532741Y-54154394D01*
X96560000Y-54052661D01*
X96560000Y-54046447D01*
X97239474Y-54725921D01*
X97271859Y-54681349D01*
X97364755Y-54499031D01*
X97427990Y-54304417D01*
X97460000Y-54102317D01*
X97460000Y-53897682D01*
X97427990Y-53695582D01*
X97364755Y-53500968D01*
X97330292Y-53433331D01*
X97304088Y-53381902D01*
X99499500Y-53381902D01*
X99499500Y-53618097D01*
X99536446Y-53851368D01*
X99609433Y-54075996D01*
X99714644Y-54282482D01*
X99716657Y-54286433D01*
X99855483Y-54477510D01*
X100022490Y-54644517D01*
X100213567Y-54783343D01*
X100312991Y-54834002D01*
X100424003Y-54890566D01*
X100424005Y-54890566D01*
X100424008Y-54890568D01*
X100544412Y-54929689D01*
X100648631Y-54963553D01*
X100881903Y-55000500D01*
X100881908Y-55000500D01*
X101118097Y-55000500D01*
X101351368Y-54963553D01*
X101409902Y-54944534D01*
X101575992Y-54890568D01*
X101786433Y-54783343D01*
X101977510Y-54644517D01*
X102144517Y-54477510D01*
X102283343Y-54286433D01*
X102390568Y-54075992D01*
X102463553Y-53851368D01*
X102464466Y-53845606D01*
X102500500Y-53618097D01*
X102500500Y-53381902D01*
X102463553Y-53148631D01*
X102390566Y-52924003D01*
X102324959Y-52795244D01*
X102283343Y-52713567D01*
X102144517Y-52522490D01*
X101977510Y-52355483D01*
X101786433Y-52216657D01*
X101575996Y-52109433D01*
X101351368Y-52036446D01*
X101118097Y-51999500D01*
X101118092Y-51999500D01*
X100881908Y-51999500D01*
X100881903Y-51999500D01*
X100648631Y-52036446D01*
X100424003Y-52109433D01*
X100213566Y-52216657D01*
X100104550Y-52295862D01*
X100022490Y-52355483D01*
X100022488Y-52355485D01*
X100022487Y-52355485D01*
X99855485Y-52522487D01*
X99855485Y-52522488D01*
X99855483Y-52522490D01*
X99811764Y-52582664D01*
X99716657Y-52713566D01*
X99609433Y-52924003D01*
X99536446Y-53148631D01*
X99499500Y-53381902D01*
X97304088Y-53381902D01*
X97271859Y-53318650D01*
X97239474Y-53274077D01*
X97239474Y-53274076D01*
X96560000Y-53953551D01*
X96560000Y-53947339D01*
X96532741Y-53845606D01*
X96480080Y-53754394D01*
X96405606Y-53679920D01*
X96314394Y-53627259D01*
X96212661Y-53600000D01*
X96206446Y-53600000D01*
X96885922Y-52920524D01*
X96885921Y-52920523D01*
X96841359Y-52888147D01*
X96841350Y-52888141D01*
X96659031Y-52795244D01*
X96464417Y-52732009D01*
X96262317Y-52700000D01*
X96057683Y-52700000D01*
X95855582Y-52732009D01*
X95660968Y-52795244D01*
X95478644Y-52888143D01*
X95434077Y-52920523D01*
X95434077Y-52920524D01*
X96113554Y-53600000D01*
X96107339Y-53600000D01*
X96005606Y-53627259D01*
X95914394Y-53679920D01*
X95839920Y-53754394D01*
X95787259Y-53845606D01*
X95760000Y-53947339D01*
X95760000Y-53953553D01*
X95080524Y-53274077D01*
X95080523Y-53274077D01*
X95048143Y-53318644D01*
X94955244Y-53500968D01*
X94892009Y-53695582D01*
X94860000Y-53897682D01*
X87300500Y-53897682D01*
X87300500Y-53897648D01*
X87278333Y-53757695D01*
X87268477Y-53695465D01*
X87233108Y-53586611D01*
X87205220Y-53500781D01*
X87205218Y-53500778D01*
X87205218Y-53500776D01*
X87112419Y-53318650D01*
X87112287Y-53318390D01*
X87080092Y-53274077D01*
X86991971Y-53152786D01*
X86847213Y-53008028D01*
X86681613Y-52887715D01*
X86681612Y-52887714D01*
X86681610Y-52887713D01*
X86624653Y-52858691D01*
X86499223Y-52794781D01*
X86304534Y-52731522D01*
X86129995Y-52703878D01*
X86102352Y-52699500D01*
X85897648Y-52699500D01*
X85873329Y-52703351D01*
X85695465Y-52731522D01*
X85500776Y-52794781D01*
X85318386Y-52887715D01*
X85152786Y-53008028D01*
X85008028Y-53152786D01*
X84887715Y-53318386D01*
X84794781Y-53500776D01*
X84731522Y-53695465D01*
X84699500Y-53897648D01*
X81527930Y-53897648D01*
X81573402Y-53757701D01*
X81600500Y-53586611D01*
X81600500Y-53413389D01*
X81573402Y-53242299D01*
X81519873Y-53077555D01*
X81441232Y-52923212D01*
X81339414Y-52783072D01*
X81216928Y-52660586D01*
X81076788Y-52558768D01*
X80922445Y-52480127D01*
X80757701Y-52426598D01*
X80757699Y-52426597D01*
X80757698Y-52426597D01*
X80626271Y-52405781D01*
X80586611Y-52399500D01*
X80413389Y-52399500D01*
X80373728Y-52405781D01*
X80242302Y-52426597D01*
X80077552Y-52480128D01*
X79923211Y-52558768D01*
X79890315Y-52582669D01*
X79783072Y-52660586D01*
X79783070Y-52660588D01*
X79783069Y-52660588D01*
X79660588Y-52783069D01*
X79660588Y-52783070D01*
X79660586Y-52783072D01*
X79616859Y-52843256D01*
X79558768Y-52923211D01*
X79480128Y-53077552D01*
X79480127Y-53077554D01*
X79480127Y-53077555D01*
X79455684Y-53152781D01*
X79426597Y-53242302D01*
X79414547Y-53318386D01*
X79399500Y-53413389D01*
X70500499Y-53413389D01*
X70500499Y-52852128D01*
X70494091Y-52792517D01*
X70490568Y-52783072D01*
X70443797Y-52657671D01*
X70443793Y-52657664D01*
X70357547Y-52542455D01*
X70357544Y-52542452D01*
X70242335Y-52456206D01*
X70242328Y-52456202D01*
X70107482Y-52405908D01*
X70107483Y-52405908D01*
X70047883Y-52399501D01*
X70047881Y-52399500D01*
X70047873Y-52399500D01*
X70047864Y-52399500D01*
X68752129Y-52399500D01*
X68752123Y-52399501D01*
X68692516Y-52405908D01*
X68557671Y-52456202D01*
X68557664Y-52456206D01*
X68442455Y-52542452D01*
X68442452Y-52542455D01*
X68356206Y-52657664D01*
X68356202Y-52657671D01*
X68305908Y-52792517D01*
X68299501Y-52852116D01*
X68299501Y-52852123D01*
X68299500Y-52852135D01*
X66675499Y-52852135D01*
X66675499Y-52777128D01*
X66669091Y-52717517D01*
X66667617Y-52713566D01*
X66618797Y-52582671D01*
X66618793Y-52582664D01*
X66532547Y-52467455D01*
X66532544Y-52467452D01*
X66417335Y-52381206D01*
X66417328Y-52381202D01*
X66282482Y-52330908D01*
X66282483Y-52330908D01*
X66222883Y-52324501D01*
X66222881Y-52324500D01*
X66222873Y-52324500D01*
X66222864Y-52324500D01*
X64777129Y-52324500D01*
X64777123Y-52324501D01*
X64717516Y-52330908D01*
X64582671Y-52381202D01*
X64582664Y-52381206D01*
X64467455Y-52467452D01*
X64467452Y-52467455D01*
X64381206Y-52582664D01*
X64381202Y-52582671D01*
X64330908Y-52717517D01*
X64324501Y-52777116D01*
X64324501Y-52777123D01*
X64324500Y-52777135D01*
X58539692Y-52777135D01*
X58535754Y-44878711D01*
X61149500Y-44878711D01*
X61149500Y-45121288D01*
X61181161Y-45361785D01*
X61243947Y-45596104D01*
X61318930Y-45777128D01*
X61336776Y-45820212D01*
X61458064Y-46030289D01*
X61458066Y-46030292D01*
X61458067Y-46030293D01*
X61605733Y-46222736D01*
X61605739Y-46222743D01*
X61777256Y-46394260D01*
X61777263Y-46394266D01*
X61870651Y-46465925D01*
X61969711Y-46541936D01*
X62179788Y-46663224D01*
X62403900Y-46756054D01*
X62638211Y-46818838D01*
X62818586Y-46842584D01*
X62878711Y-46850500D01*
X62878712Y-46850500D01*
X63121289Y-46850500D01*
X63169388Y-46844167D01*
X63361789Y-46818838D01*
X63596100Y-46756054D01*
X63820212Y-46663224D01*
X64030289Y-46541936D01*
X64222738Y-46394265D01*
X64394265Y-46222738D01*
X64541936Y-46030289D01*
X64627581Y-45881947D01*
X88000000Y-45881947D01*
X88000000Y-46118052D01*
X88036934Y-46351247D01*
X88109897Y-46575802D01*
X88217087Y-46786174D01*
X88277338Y-46869104D01*
X88277340Y-46869105D01*
X89017037Y-46129408D01*
X89034075Y-46192993D01*
X89099901Y-46307007D01*
X89192993Y-46400099D01*
X89307007Y-46465925D01*
X89370590Y-46482962D01*
X88630893Y-47222658D01*
X88713828Y-47282914D01*
X88924197Y-47390102D01*
X89148752Y-47463065D01*
X89148751Y-47463065D01*
X89381948Y-47500000D01*
X89618052Y-47500000D01*
X89851247Y-47463065D01*
X90075802Y-47390102D01*
X90286163Y-47282918D01*
X90286169Y-47282914D01*
X90369104Y-47222658D01*
X90369105Y-47222658D01*
X89629408Y-46482962D01*
X89692993Y-46465925D01*
X89807007Y-46400099D01*
X89900099Y-46307007D01*
X89965925Y-46192993D01*
X89982962Y-46129409D01*
X90722658Y-46869105D01*
X90722658Y-46869104D01*
X90782914Y-46786169D01*
X90782918Y-46786163D01*
X90890102Y-46575802D01*
X90963065Y-46351247D01*
X91000000Y-46118052D01*
X91000000Y-45881947D01*
X90999993Y-45881902D01*
X92499500Y-45881902D01*
X92499500Y-46118097D01*
X92536446Y-46351368D01*
X92609433Y-46575996D01*
X92701177Y-46756052D01*
X92716657Y-46786433D01*
X92855483Y-46977510D01*
X93022490Y-47144517D01*
X93213567Y-47283343D01*
X93312991Y-47334002D01*
X93424003Y-47390566D01*
X93424005Y-47390566D01*
X93424008Y-47390568D01*
X93506367Y-47417328D01*
X93648631Y-47463553D01*
X93881903Y-47500500D01*
X93881908Y-47500500D01*
X94118097Y-47500500D01*
X94351368Y-47463553D01*
X94402131Y-47447059D01*
X94575992Y-47390568D01*
X94786433Y-47283343D01*
X94977510Y-47144517D01*
X95144517Y-46977510D01*
X95283343Y-46786433D01*
X95390568Y-46575992D01*
X95445306Y-46407526D01*
X98325000Y-46407526D01*
X98325000Y-46592473D01*
X98353933Y-46775147D01*
X98411083Y-46951040D01*
X98411084Y-46951043D01*
X98495050Y-47115834D01*
X98510015Y-47136430D01*
X98510016Y-47136431D01*
X99100000Y-46546447D01*
X99100000Y-46552661D01*
X99127259Y-46654394D01*
X99179920Y-46745606D01*
X99254394Y-46820080D01*
X99345606Y-46872741D01*
X99447339Y-46900000D01*
X99453552Y-46900000D01*
X98863568Y-47489983D01*
X98863568Y-47489984D01*
X98884165Y-47504949D01*
X99048956Y-47588915D01*
X99048959Y-47588916D01*
X99224852Y-47646066D01*
X99407527Y-47675000D01*
X99592473Y-47675000D01*
X99775147Y-47646066D01*
X99951040Y-47588916D01*
X99951043Y-47588915D01*
X100115838Y-47504947D01*
X100231306Y-47421054D01*
X100297112Y-47397573D01*
X100365166Y-47413398D01*
X100403458Y-47447059D01*
X100467455Y-47532547D01*
X100582664Y-47618793D01*
X100582671Y-47618797D01*
X100717517Y-47669091D01*
X100717516Y-47669091D01*
X100724444Y-47669835D01*
X100777127Y-47675500D01*
X102222872Y-47675499D01*
X102282483Y-47669091D01*
X102417331Y-47618796D01*
X102532546Y-47532546D01*
X102618796Y-47417331D01*
X102669091Y-47282483D01*
X102675500Y-47222873D01*
X102675499Y-45777128D01*
X102669091Y-45717517D01*
X102659944Y-45692993D01*
X102618797Y-45582671D01*
X102618793Y-45582664D01*
X102532547Y-45467455D01*
X102532544Y-45467452D01*
X102417335Y-45381206D01*
X102417328Y-45381202D01*
X102282482Y-45330908D01*
X102282483Y-45330908D01*
X102222883Y-45324501D01*
X102222881Y-45324500D01*
X102222873Y-45324500D01*
X102222864Y-45324500D01*
X100777129Y-45324500D01*
X100777123Y-45324501D01*
X100717516Y-45330908D01*
X100582671Y-45381202D01*
X100582664Y-45381206D01*
X100467455Y-45467452D01*
X100403459Y-45552939D01*
X100347525Y-45594809D01*
X100277833Y-45599793D01*
X100231308Y-45578946D01*
X100115833Y-45495049D01*
X99951043Y-45411084D01*
X99951040Y-45411083D01*
X99775147Y-45353933D01*
X99592473Y-45325000D01*
X99407527Y-45325000D01*
X99224852Y-45353933D01*
X99048959Y-45411083D01*
X99048956Y-45411084D01*
X98884167Y-45495049D01*
X98863568Y-45510015D01*
X99453553Y-46100000D01*
X99447339Y-46100000D01*
X99345606Y-46127259D01*
X99254394Y-46179920D01*
X99179920Y-46254394D01*
X99127259Y-46345606D01*
X99100000Y-46447339D01*
X99100000Y-46453553D01*
X98510015Y-45863568D01*
X98495049Y-45884167D01*
X98411084Y-46048956D01*
X98411083Y-46048959D01*
X98353933Y-46224852D01*
X98325000Y-46407526D01*
X95445306Y-46407526D01*
X95449615Y-46394265D01*
X95459340Y-46364335D01*
X95463553Y-46351368D01*
X95500500Y-46118097D01*
X95500500Y-45881902D01*
X95470579Y-45692993D01*
X95463553Y-45648632D01*
X95463552Y-45648628D01*
X95463552Y-45648627D01*
X95446320Y-45595592D01*
X95404685Y-45467455D01*
X95390568Y-45424008D01*
X95390566Y-45424005D01*
X95390566Y-45424003D01*
X95283477Y-45213830D01*
X95283343Y-45213567D01*
X95144517Y-45022490D01*
X95000738Y-44878711D01*
X106149500Y-44878711D01*
X106149500Y-45121288D01*
X106181161Y-45361785D01*
X106243947Y-45596104D01*
X106318930Y-45777128D01*
X106336776Y-45820212D01*
X106458064Y-46030289D01*
X106458066Y-46030292D01*
X106458067Y-46030293D01*
X106605733Y-46222736D01*
X106605739Y-46222743D01*
X106777256Y-46394260D01*
X106777263Y-46394266D01*
X106870651Y-46465925D01*
X106969711Y-46541936D01*
X107179788Y-46663224D01*
X107403900Y-46756054D01*
X107638211Y-46818838D01*
X107818586Y-46842584D01*
X107878711Y-46850500D01*
X107878712Y-46850500D01*
X108121289Y-46850500D01*
X108169388Y-46844167D01*
X108361789Y-46818838D01*
X108596100Y-46756054D01*
X108820212Y-46663224D01*
X109030289Y-46541936D01*
X109222738Y-46394265D01*
X109394265Y-46222738D01*
X109541936Y-46030289D01*
X109663224Y-45820212D01*
X109756054Y-45596100D01*
X109818838Y-45361789D01*
X109850500Y-45121288D01*
X109850500Y-44878712D01*
X109818838Y-44638211D01*
X109756054Y-44403900D01*
X109663224Y-44179788D01*
X109541936Y-43969711D01*
X109394265Y-43777262D01*
X109394260Y-43777256D01*
X109222743Y-43605739D01*
X109222736Y-43605733D01*
X109030293Y-43458067D01*
X109030292Y-43458066D01*
X109030289Y-43458064D01*
X108820212Y-43336776D01*
X108820205Y-43336773D01*
X108596104Y-43243947D01*
X108361785Y-43181161D01*
X108121289Y-43149500D01*
X108121288Y-43149500D01*
X107878712Y-43149500D01*
X107878711Y-43149500D01*
X107638214Y-43181161D01*
X107403895Y-43243947D01*
X107179794Y-43336773D01*
X107179785Y-43336777D01*
X106969706Y-43458067D01*
X106777263Y-43605733D01*
X106777256Y-43605739D01*
X106605739Y-43777256D01*
X106605733Y-43777263D01*
X106458067Y-43969706D01*
X106336777Y-44179785D01*
X106336773Y-44179794D01*
X106243947Y-44403895D01*
X106181161Y-44638214D01*
X106149500Y-44878711D01*
X95000738Y-44878711D01*
X94977510Y-44855483D01*
X94786433Y-44716657D01*
X94575996Y-44609433D01*
X94351368Y-44536446D01*
X94118097Y-44499500D01*
X94118092Y-44499500D01*
X93881908Y-44499500D01*
X93881903Y-44499500D01*
X93648631Y-44536446D01*
X93424003Y-44609433D01*
X93213566Y-44716657D01*
X93130047Y-44777338D01*
X93022490Y-44855483D01*
X93022488Y-44855485D01*
X93022487Y-44855485D01*
X92855485Y-45022487D01*
X92855485Y-45022488D01*
X92855483Y-45022490D01*
X92795862Y-45104550D01*
X92716657Y-45213566D01*
X92609433Y-45424003D01*
X92536446Y-45648631D01*
X92499500Y-45881902D01*
X90999993Y-45881902D01*
X90963065Y-45648752D01*
X90890102Y-45424197D01*
X90782914Y-45213828D01*
X90722658Y-45130894D01*
X90722658Y-45130893D01*
X89982962Y-45870590D01*
X89965925Y-45807007D01*
X89900099Y-45692993D01*
X89807007Y-45599901D01*
X89692993Y-45534075D01*
X89629409Y-45517037D01*
X90369105Y-44777340D01*
X90369104Y-44777338D01*
X90286174Y-44717087D01*
X90075802Y-44609897D01*
X89851247Y-44536934D01*
X89851248Y-44536934D01*
X89618052Y-44500000D01*
X89381948Y-44500000D01*
X89148752Y-44536934D01*
X88924197Y-44609897D01*
X88713830Y-44717084D01*
X88630894Y-44777340D01*
X89370591Y-45517037D01*
X89307007Y-45534075D01*
X89192993Y-45599901D01*
X89099901Y-45692993D01*
X89034075Y-45807007D01*
X89017037Y-45870591D01*
X88277340Y-45130894D01*
X88217084Y-45213830D01*
X88109897Y-45424197D01*
X88036934Y-45648752D01*
X88000000Y-45881947D01*
X64627581Y-45881947D01*
X64663224Y-45820212D01*
X64756054Y-45596100D01*
X64818838Y-45361789D01*
X64850500Y-45121288D01*
X64850500Y-44878712D01*
X64818838Y-44638211D01*
X64756054Y-44403900D01*
X64663224Y-44179788D01*
X64541936Y-43969711D01*
X64394265Y-43777262D01*
X64394260Y-43777256D01*
X64222743Y-43605739D01*
X64222736Y-43605733D01*
X64030293Y-43458067D01*
X64030292Y-43458066D01*
X64030289Y-43458064D01*
X63820212Y-43336776D01*
X63820205Y-43336773D01*
X63596104Y-43243947D01*
X63361785Y-43181161D01*
X63121289Y-43149500D01*
X63121288Y-43149500D01*
X62878712Y-43149500D01*
X62878711Y-43149500D01*
X62638214Y-43181161D01*
X62403895Y-43243947D01*
X62179794Y-43336773D01*
X62179785Y-43336777D01*
X61969706Y-43458067D01*
X61777263Y-43605733D01*
X61777256Y-43605739D01*
X61605739Y-43777256D01*
X61605733Y-43777263D01*
X61458067Y-43969706D01*
X61336777Y-44179785D01*
X61336773Y-44179794D01*
X61243947Y-44403895D01*
X61181161Y-44638214D01*
X61149500Y-44878711D01*
X58535754Y-44878711D01*
X58533781Y-40921699D01*
X58553432Y-40854652D01*
X58606213Y-40808870D01*
X58657179Y-40797640D01*
X112374907Y-40538663D01*
X112442036Y-40558024D01*
G37*
%TD.AperFunction*%
%TD*%
M02*
